<svg id="svg_line" data-name="レイヤー 1" xmlns="http://www.w3.org/2000/svg" width="768" height="4" viewBox="0 0 768 4" fill="#cccccc">
  <path d="M768,.935v2.5c-1.09-.04-5.3.115-6.33.015.04-.15.06-.25.12-.48-.72.14-1.4.26-2.04.38h-9.84c-.48-.01-.94-.32-1.47.05-.14.09-.38.04-.57.08-.65.1-1.28-.16-1.95-.03a11.144,11.144,0,0,1-2,.02c-.15-.18-.26-.32-.43-.54-.46.46-.95.81-1.57.34-.9.57-1.91-.47-2.81.2-1.08,0-2.16.08-3.23-.02-.7-.07-1.48.28-2.04-.04-.74-.43-1.31.25-1.97.02-.07-.11-.16-.24-.24-.38-.48.25-.92.57-1.52.29a1.113,1.113,0,0,0-.61.07,3.373,3.373,0,0,1-1.73-.05h-1.68c0-.02.01-.04.01-.06-.49.07-.98.13-1.52.21.06-.23.08-.33.14-.58-.33.2-.58.35-.9.54-.88,0-1.84.01-2.79,0a3.6,3.6,0,0,1-.81-.12,2.1,2.1,0,0,0-1.5.03,1.147,1.147,0,0,1-1.48-.35,3.253,3.253,0,0,1-3.39-.08c-.35.17-.66.33-1.13.56-.47-.05-1.09-.12-1.92-.21a8.132,8.132,0,0,1-3.65,0,1.447,1.447,0,0,1-1.42.06h-1.68c0-.03.01-.05.01-.07a5.986,5.986,0,0,1-1.25.11c-.43-.06-.81.14-1.24.09-1.02-.14-2.07.19-3.07-.2-.5.49-1.03-.08-1.55.04a7.144,7.144,0,0,1-1.53.14,2.6,2.6,0,0,1-1.28-.18,1.221,1.221,0,0,0-1.04-.01c-.43.33-.8-.09-1.2.05a2.066,2.066,0,0,1-1.27.08c-.46-.15-.82.24-1.24.07a4.268,4.268,0,0,0-.8-.14c-.04-.06-.12-.2-.2-.33h-1.12c-.17.13-.36.28-.6.47-.88-.29-1.87.33-2.77-.26-.31.1-.6.19-.94.29-.1-.15-.17-.28-.25-.41a.647.647,0,0,0-.2.04,2.274,2.274,0,0,1-1.35.34c-1.02-.12-2.07.22-3.07-.21a2.879,2.879,0,0,1-1.79.1c-.21-.05-.46.1-.69.1-.92.01-1.84,0-2.75,0-.1-.15-.18-.28-.27-.41-.28.13-.56.27-.9.44-.18-.07-.4-.14-.54-.19a9.858,9.858,0,0,1-1.21.16,14.55,14.55,0,0,1-3.36-.17,2.033,2.033,0,0,0-.67.09c-.26.04-.53.06-.84.09.05-.19.08-.29.11-.4-.2-.1-.41-.21-.61-.31-.41.24-.82.48-1.15.68h-3.36a2.9,2.9,0,0,1,.07-.34c-.46-.45-.68.27-1.05.28-.04-.11-.07-.18-.14-.36-.19.14-.35.27-.6.46-.5-.03-1.08-.07-1.65-.11a3.977,3.977,0,0,1-2.33-.05c-.93.05-1.67.13-2.41.13a8.6,8.6,0,0,1-2.13-.24c-.29.09-.59.19-.91.3-.11-.15-.19-.27-.28-.39a3,3,0,0,1-1.02.31,3,3,0,0,1-.97-.48c-.24.15-.5.32-.8.51-.65-.1-1.38.21-2.07-.18-.09-.05-.28.06-.42.11a.973.973,0,0,1-1.2-.34c-.23.1-.47.21-.59.26a8.979,8.979,0,0,1-2.39.1c-.81-.18-1.52.18-2.3.08a18.546,18.546,0,0,0-2.49-.03c.03-.15.05-.27.08-.45-.78.11-1.54.22-2.3.33-.11.01-.22.12-.33.11a13.26,13.26,0,0,0-2.52-.01c-.2.03-.44-.16-.62-.23-1.14.49-2.17-.11-3.28-.21-.27.13-.59.28-.91.44-.99-.53-1.99.39-3.08-.09-.01-.03-.1-.16-.18-.28h-1.96c-.09.06-.31.23-.57.42-.98-.17-2.01.17-3.04-.21-.31-.11-.74.16-1.13.17a10.044,10.044,0,0,1-2.39-.02c-.73-.15-1.47.34-2.15-.12-.98.48-1.99-.3-3,.12-.38.15-.91-.08-1.45-.14a9.279,9.279,0,0,1-1.18.17c-1.4.02-2.8-.05-4.2.03-.53.03-1.04-.47-1.56-.05-.93-.41-1.87.15-2.87-.01.02-.11.04-.2.07-.38a2.844,2.844,0,0,0-1.79.38h-4.77c.03-.14.06-.24.09-.35-.53-.36-.73.28-1.06.36H585.9c.02-.12.04-.22.08-.44a10.086,10.086,0,0,0-1.51.31,3.657,3.657,0,0,1-2.33.06,2.294,2.294,0,0,0-1.3-.01,2.557,2.557,0,0,1-1.54-.1c-.21.08-.38.15-.64.25.06-.23.09-.33.12-.43-.06-.03-.13-.09-.2-.09-.62.05-1.12.69-1.79.46a6.128,6.128,0,0,0-1.76-.06,16.72,16.72,0,0,0-3.16.06c-.96.14-1.93-.09-2.9,0a13.859,13.859,0,0,1-2.88-.01c-1.23-.15-2.48.31-3.69-.15-1.05.39-2.14.03-3.2.22-.24-.18-.46-.35-.7-.53a1.3,1.3,0,0,0-.34.01c-.45.13-.89.27-1.38.42-.99-.41-2.04-.05-3.09.04-.41-.15-.81-.29-1.24-.44-1.89.73-3.89.35-5.91.43a2.9,2.9,0,0,1,.07-.34c-.52-.39-.71.25-1.19.38-.2-.03-.51-.07-.83-.1a4.881,4.881,0,0,0-1.98-.05c-.33.09-.72.29-1.09-.05a.633.633,0,0,0-.57-.04c-.64.35-1.37-.23-1.99.22-1.03-.28-2.11.25-3.12-.17-.37-.15-.61.05-.89.17-.3.12-.52-.18-.88-.07a2.3,2.3,0,0,1-1.72-.14,5.063,5.063,0,0,1-3.15-.02c-.16.07-.34.15-.52.24-1.19-.47-2.44-.13-3.66-.28-.12-.14-.23-.28-.39-.48-.23.18-.45.34-.67.5-.59-.04-1.18-.08-1.76-.13-.6.05-1.2.4-1.84-.09a1.945,1.945,0,0,1-2.3-.34,2.763,2.763,0,0,1-2.2.5c-.61-.01-1.32.26-1.89-.35a3.868,3.868,0,0,1-2.24.41,8.216,8.216,0,0,1-1.21-.35c-.29.09-.69.21-1.1.34-.12-.15-.24-.3-.41-.51-.27.13-.53.27-.86.44-.3-.24-.65.03-1,.04a14.709,14.709,0,0,0-3.04.01,1.59,1.59,0,0,0-1.69.08c-.23-.1-.44-.19-.64-.27-.43.09-.84.18-1.21.27-.16-.24-.27-.38-.41-.58-.18.22-.3.37-.48.59-.56-.06-1.18-.13-2-.22-.24.05-.7.14-1.12.23-.25-.19-.44-.34-.63-.49-.15.13-.3.26-.55.46-.72-.05-1.52-.11-2.38-.16-.03-.05-.12-.18-.24-.37-.22.15-.44.29-.75.5a9.088,9.088,0,0,1-2.58-.15c-.54.07-1.08.13-1.71.2.04-.19.06-.29.09-.45-.36-.25-.4.53-.85.3-.29-.15-.8.19-1.13.07a5.926,5.926,0,0,0-2.01-.07c-1.78.01-3.55.1-5.31.16-.13-.19-.21-.32-.3-.46-.63.21-1.26.86-1.89-.05-.21.16-.39.29-.58.44a13.052,13.052,0,0,0-1.75-.21,15.793,15.793,0,0,0-1.88.23c.05-.19.08-.3.11-.42-.55-.25-.84.34-1.29.41-1.32,0-2.64.01-3.96,0a6.194,6.194,0,0,1-1.28-.14,5.123,5.123,0,0,0-1.66-.03c-1.15.14-1.14.21-1.97-.08a6.2,6.2,0,0,1-.62.24.631.631,0,0,1-.27-.01c-.07-.11-.16-.24-.24-.36-.4.67-.8.35-1.19-.02-.4.13-.8.27-1.28.42-.52-.46-1.11-.2-1.73-.03-.59.17-1.2-.32-1.74.06-.18-.23-.29-.38-.42-.56-.27.19-.49.35-.71.52a9.094,9.094,0,0,1-2-.19,1.605,1.605,0,0,0-1.33-.08c-.39.22-.81-.34-1.22.01-.03.02-.08.01-.12.01-.65.07-1.22-.44-1.96-.1a5.406,5.406,0,0,1-1.86.13c-.18-.16-.34-.29-.54-.46-.78.87-1.83.69-2.85.65-.11-.14-.23-.29-.41-.51-.59.67-1.41.38-2.17.54-.21-.15-.43-.31-.69-.5-.57.15-1.16.3-1.86.49.02-.24.03-.43.05-.64-.04-.01-.15-.07-.17-.05-.61.71-1.43.51-2.19.53-.52.01-1.05,0-1.57.03-.38.02-.75.11-1.16.17.06-.29.1-.46.16-.73-.53.25-.97.47-1.42.68-.86-.22-.86-.22-1.52.02-.11-.1-.26-.23-.4-.35-.12-.11-.23-.22-.34-.32-.53.21-1.04.41-1.65.65-.42-.07-.99.19-1.51-.18-.06-.04-.21.04-.32.06a15.993,15.993,0,0,1-4.48-.05,2.286,2.286,0,0,0-1.07-.03,4.537,4.537,0,0,1-2.89,0,1.31,1.31,0,0,0-.83-.01,9.347,9.347,0,0,1-2.92.23c.03-.16.05-.28.09-.53a6.78,6.78,0,0,1-3.68.5c.02-.13.04-.25.08-.54-.24.21-.39.34-.67.58-.46-.04-1.08-.08-1.79-.12-.82.04-1.75.09-2.73.14.1-.28.16-.42.21-.56-.07-.04-.14-.11-.17-.09-.33.2-.66.42-.96.61-.86-.39-1.67.18-2.55-.1a6.492,6.492,0,0,0-2.34.16c-.13-.19-.22-.32-.32-.47-.08.12-.16.23-.27.38h-5.54c.02-.11.04-.2.06-.31-.51-.43-.69.23-1.12.33h-1.74c-.08-.12-.17-.25-.24-.37-1.1.23-2.19.7-3.36.13a2.22,2.22,0,0,1-2.01.05.924.924,0,0,0-.69.04,1.093,1.093,0,0,1-1.13.02.536.536,0,0,0-.45-.08c-.8.41-1.66.1-2.49.21a9.948,9.948,0,0,1-1.34.01c-.14-.16-.29-.32-.45-.5-.83.35-1.74.1-2.57.48a.925.925,0,0,1-1.13-.43c-.22.18-.4.32-.64.51a2.19,2.19,0,0,0-1.93-.11c-.78.17-1.52-.11-2.29.02a11.228,11.228,0,0,1-2.39.02,2.7,2.7,0,0,1-.66-.22,8.356,8.356,0,0,1-3.07.22c-.36-.41-.72.03-1.08,0-.32-.02-.68-.23-.94-.14-.91.33-1.82.03-2.76.18-.18-.14-.36-.29-.55-.43a5.584,5.584,0,0,1-2.26.31,20.838,20.838,0,0,1-2.62-.02c.11-.08.21-.15.33-.25-.53-.37-.73.24-1.16.38-.19-.07-.45-.15-.8-.26-.38-.01-.86.65-1.26-.04a10.614,10.614,0,0,1-3.74.26c-.33-.43-.65-.02-.97.02s-.59-.43-.98-.06c-.36.34-.79-.46-1.19.01a6.03,6.03,0,0,0-2.28.02c-.17.03-.39-.22-.65-.38-.1.09-.25.21-.34.28h-.93c-.32,0-.64,0-.96.01s-.61.03-.91.05c-.34.02-.67.06-1,.07-.31.01-.62-.03-1.01-.04.22-.19.36-.3.49-.42-1.54.33-3.04.83-4.53.26-.54.08-1,.17-1.46.2-1.29.08-2.58-.08-3.87-.01-.33.02-.68-.11-1.01-.1-.81.05-1.63.1-2.49.15.06-.28.1-.45.17-.76-.45.26-.8.47-1.23.72-1.24-.56-2.64.44-4.01-.21a5.065,5.065,0,0,1-2.42.19c-.33-.01-.6-.35-1-.1-.23.14-.58-.28-.84.08-.03.05-.16.05-.23.04-.73-.18-1.46.12-2.18,0a.6.6,0,0,1-.23-.06c-.21-.1-.42-.21-.62-.32-.87.08-1.69.71-2.59.17a1.926,1.926,0,0,1-1.61-.01c-.53-.12-1.06.22-1.59-.01-.66.43-1.45-.35-2.1.21a1.6,1.6,0,0,0-1.34-.07c-.38.11-.86-.12-1.29-.12a4.858,4.858,0,0,0-.98.23c-.15-.11-.33-.25-.56-.43-.16.11-.34.24-.6.44-.42-.04-.92-.09-1.63-.17-.26.08-.73.38-1.19-.13a.735.735,0,0,0-.8-.06,8.318,8.318,0,0,1-3.64.31c-.61-.01-1.22.06-1.82.02-.56-.05-1.11-.15-1.67-.24a3.89,3.89,0,0,1-.44-.16c-.08.12-.16.25-.28.43a2.92,2.92,0,0,0-2.02-.05,3.207,3.207,0,0,1-1.54-.01c-.53-.16-.98.13-1.48.04a8.654,8.654,0,0,0-1.52-.12c-.58.01-1.16.1-1.7.16-.2-.18-.35-.3-.48-.41-1.16.07-2.28.78-3.33.14a6.341,6.341,0,0,1-1.14.21c-.63.02-1.27-.02-1.9-.06-.56-.04-1.13.28-1.67-.09a7.83,7.83,0,0,1-3.44-.05,2.431,2.431,0,0,1-1.38.21,2.987,2.987,0,0,1-.6-.02,2.214,2.214,0,0,0-1.6.03l-.95-.46c-.88.2-1.67.38-2.4.54-.26-.21-.41-.34-.56-.46-.99.13-1.98.25-3.03.38.05-.19.08-.29.14-.5-1.55.32-3.06.86-4.61.26-.92.41-1.88.16-2.94.25.02-.16.04-.28.06-.42-.51-.35-.71.32-1.09.4a21.644,21.644,0,0,0-3.69.05c-.03-.25-.06-.43-.11-.78-.45.25-.81.45-1.34.74a11.138,11.138,0,0,0-1.63-.08,3.154,3.154,0,0,1-1.89-.15c-.83.59-1.61-.09-2.68-.11a1.713,1.713,0,0,1-1.53.25c-.06-.1-.12-.2-.14-.23-.66.14-1.29.27-2.04.43.04-.27.05-.4.06-.52a2.228,2.228,0,0,0-1.33.41c-.87-.11-1.8.22-2.72-.26a3.158,3.158,0,0,1-2.35.12c-.7.05-1.41.31-1.84.07-.58-.31-1.02.27-1.57-.05-.46-.27-1.12.53-1.57-.18-.38.13-.67.23-1,.34-.19-.15-.38-.3-.56-.45a1.192,1.192,0,0,0-.2.08,2.035,2.035,0,0,1-1.36.32c-1.39-.2-2.78.15-4.19-.11a9.5,9.5,0,0,0-2.46.18V2.77c-.53.15-1.05.29-1.62.44-.18-.13-.39-.3-.64-.48a6.55,6.55,0,0,1-2.83.37c-.04-.06-.12-.19-.24-.38-.58.18-1.17.36-1.8.55-.09-.15-.17-.28-.25-.4-.56-.03-.99.47-1.65.27a4.477,4.477,0,0,0-1.66.14c-.22-.19-.38-.31-.52-.43a12.1,12.1,0,0,1-3.86.38c-.13-.19-.21-.32-.24-.35-1.51.15-2.97.29-4.26.42-.88-.38-1.56-.87-2.36-.23a1.338,1.338,0,0,1-.83.15,21.865,21.865,0,0,0-2.56.01,5.9,5.9,0,0,1-.7-.1c-.42-.05-.94-.24-1.26-.08a1.176,1.176,0,0,1-1.57-.32c-.36.18-.68.34-.79.39h-.96c-1.04.03-2.08.07-3.11.1-.43-.45-.96.21-1.39-.13a4.241,4.241,0,0,1-2.18.02,10.75,10.75,0,0,0-1.5.02l-1.28.06c-.41.02-.83.04-1.24.04-.44.01-.88.01-1.31-.02a1.434,1.434,0,0,1-.44-.2c-.98.54-1.88.01-2.9-.21a7.279,7.279,0,0,1-2.56.44,12.263,12.263,0,0,0-1.36-.07c-.47,0-.95.07-1.42.05a13.589,13.589,0,0,1-1.41-.19,1.584,1.584,0,0,1-1.44.08.58.58,0,0,0-.43,0,2.033,2.033,0,0,1-1.93-.22c-.53.16-.99.3-1.43.43-.19-.24-.31-.39-.43-.54-.41.13-.81.26-1.2.38-.13-.12-.25-.22-.41-.35-.17.13-.35.26-.55.41h-4.7c-.16-.12-.35-.27-.54-.42-.15.13-.3.26-.48.41h-1.41c-.09-.13-.17-.26-.24-.38-.31.1-.6.19-.9.28v.02c-.03.02-.08.05-.1.04-1.02-.55-2.01.22-3.02.07-.42-.07-.84-.12-1.43-.19a1.05,1.05,0,0,1-1.48-.21,12.739,12.739,0,0,1-4.87.61c.01-.14.02-.26.05-.51-.31.19-.56.35-.84.52h-.82c-.08-.12-.17-.24-.24-.35a4.686,4.686,0,0,1-1.21.34,4.412,4.412,0,0,1-1.19-.35c-.38.09-.82.35-1.09.23-.47-.2-.76.08-1.16.18-1.07-.79-2.2.31-3.35-.12a2.518,2.518,0,0,1,.06-.29c-.54-.43-.92.54-1.45.2A1.3,1.3,0,0,1,117,3.2c-.49.2-.95.47-1.47.09-.07-.05-.28.06-.42.11a.984.984,0,0,1-1.2-.33c-.64.36-1.29.03-2.06.05-.08.07-.27.21-.44.34h-3.34c.02-.14.04-.26.08-.51-.29.15-.51.27-.73.4-.74-.08-1.5-.16-2.48-.26-.03.03-.25.19-.47.35H103.3V2.97q-.6.27-1.05.48H99.41c.04-.14.06-.24.11-.41-.2-.11-.42-.22-.66-.35-.31.28-.58.52-.9.8-.3-.08-.63-.17-.99-.26-.3.15-.62.3-.98.48-.62-.06-1.31.17-1.93-.22a.167.167,0,0,0-.12-.01,3.535,3.535,0,0,1-2.4.04c-.7.52-1.24-.26-2.09-.1-.85.6-2.03.18-3.22.31.02-.18.03-.3.04-.43-.5-.29-.68.26-1.06.41H83.44c-.18-.14-.37-.28-.52-.4-.33.11-.63.2-1.02.33-.08-.07-.23-.19-.39-.33a1.162,1.162,0,0,1-1.23-.02c-.17.13-.35.26-.57.42-.67-.09-1.39.21-2.07-.18-.88.46-1.83-.49-2.7.16-.67-.31-1.44.25-2.07-.26-.26.11-.47.19-.75.31a3.124,3.124,0,0,0-2.33-.14c-.74.17-1.49-.29-2.13.19-.2-.25-.32-.4-.47-.58-.24.17-.46.33-.68.49-4.71.08-5.45.01-6.16-.63a2.6,2.6,0,0,1-2.63.14c-.93.5-1.92.08-2.85.22-.98.14-1.93-.1-2.9.02-.95.12-1.92-.12-2.97.1.04-.23.06-.32.08-.43-.5-.41-.7.23-1.15.36-.13-.11-.31-.25-.51-.4-.46.14-.93.28-1.41.43-.11-.17-.2-.3-.27-.42a3.115,3.115,0,0,0-.77.21,1.324,1.324,0,0,1-1.37.1c-.47-.38-.88.34-1.33-.11-.23-.22-.79.18-1.19-.05-.48.45-1.02.02-1.53.12a11.477,11.477,0,0,1-1.66.11c-.56.02-1.12,0-1.68,0s-1.12.03-1.68-.01a2.745,2.745,0,0,1-.72-.33c-.18.06-.53.17-.93.3-.24-.06-.59-.25-.84-.17a2.743,2.743,0,0,1-1.7.01,5.108,5.108,0,0,0-1.63.13c-.27.02-.54.07-.82.07a4.71,4.71,0,0,1-1.55-.04c-.53-.18-.97.14-1.48.06a1.691,1.691,0,0,0-1.27.18c-.14.09-.39,0-.58.05-.42.1-.78-.23-1.24-.04a3.806,3.806,0,0,1-1.31.03c-.44.01-15.05-.02-15.49.01a8.03,8.03,0,0,1-2.75-.39c-.12.09-.3.22-.48.36C1.41,3.67.76,3.64,0,3.62V.88C1.94.96,9.55.46,9.99.97,10.55.9,11.01.85,11.42.8c.14.21.23.34.35.53.26-.18,6.18-.34,6.48-.54.18.15.36.3.56.45.18-.13.36-.28.56-.42a20.793,20.793,0,0,1,3.35.04c1.03.16,2.07-.31,3.11.11.12-.1.28-.22.45-.37h1.35c.23.12.51.26.8.4.3-.21.54-.62,1.01-.33-.03.11-.06.21-.11.38.61-.1,1.17-.18,1.69-.26.11.2.17.3.23.4.41-.19.82-.37,1.22-.56a2.29,2.29,0,0,0,1.75.14,3.708,3.708,0,0,1,1.32-.1c.43.04.86.08,1.29.1a2.6,2.6,0,0,0,.56-.06c.27-.04.54-.09.81-.13.77-.13,1.52.13,2.31.02A13.618,13.618,0,0,1,42.9.59a10.082,10.082,0,0,1,1.18.19c.18-.05.51-.14.93-.25-.02.21-.03.33-.05.46.45-.01.45-.01.68-.29H47.5l.58.29c1.51-.16,2.91-.31,4.4-.47-.04.21-.06.31-.09.43.51.37.71-.25,1.14-.38a4.715,4.715,0,0,0,2.59.07,8.608,8.608,0,0,1,2.47.08A6.976,6.976,0,0,0,59.5.69c.15-.01.3-.11.45-.1.54.03,1.08.14,1.62.14S62.66.61,63.21.59a2,2,0,0,1,.65.22C65.27.35,66.71.69,68.11.56c.31.16.59.3.88.44C69.57.65,70.17.32,70.8.83c.95-.3.95-.3,1.68-.04A5.834,5.834,0,0,1,73.79.6c.89.08,1.85-.15,2.7.47.3-.15.61-.3.98-.48h1.56c.06.11.14.23.23.38.66-.24,1.34-.81,1.93.04.28-.1.34-.39.74-.29A5.144,5.144,0,0,0,83.47.58c.8-.07,1.55.32,2.42.05A7.859,7.859,0,0,1,88.27.58h.82c.18.14.33.27.49.4.47-.06.79-.56,1.41-.3C91.41.85,92,.54,92.47.64c.52.1.97-.17,1.47-.07a2.949,2.949,0,0,0,1.48.12c.63-.26.96.19,1.43.3a1.927,1.927,0,0,1,1.7-.34c-.03.11-.06.21-.11.39C99.21.88,99.95.7,100.7.58s1.53.18,2.32.01c.08.13.16.25.26.41.19-.14.37-.27.55-.4.61-.1,1.21.11,1.83,0A12.61,12.61,0,0,1,107.7.58c.64,0,1.28-.02,1.92,0a4.654,4.654,0,0,1,1.26.23c.41-.1.83-.19,1.2-.27.2.23.34.4.52.61.32-.21.58-.38.84-.54.55-.35,1.06.34,1.7.02a2.723,2.723,0,0,1,1.65-.02c.59.13,1.14-.21,1.72-.04.31.15.63.31.95.46a6.156,6.156,0,0,1,3.06-.4c-.01.11-.03.23-.04.38.49.18.79-.29,1.19-.35a6.385,6.385,0,0,1,1.38.1c.19-.04.51-.12.89-.21-.05.22-.08.33-.13.56.29-.16.51-.29.56-.31.6-.08,1.04-.13,1.55-.19.14.05.36.14.59.24a1.338,1.338,0,0,1,1.45-.09.628.628,0,0,0,.58.03c.64-.39,1.32-.11,2.08-.27-.03.21-.05.33-.1.63.25-.22.39-.34.6-.52a.2.2,0,0,1,.14-.04c1.09.13,2.17-.05,3.26-.02s2.16,0,3.24.01a27.868,27.868,0,0,1,3.66.12c.56.07,1.15-.48,1.65.09a14.391,14.391,0,0,1,1.59-.2c1.92-.02,3.84-.07,5.76.02a14.223,14.223,0,0,0,1.85.03,8.211,8.211,0,0,0,1.56-.06c.07-.02.21,0,.22.03a.543.543,0,0,0,.69.34,3.984,3.984,0,0,0,.72-.39c.48.05,1,.54,1.53.06,1.38.1,2.79-.25,4.25.14a1.135,1.135,0,0,1,1.24,0c.43-.34.88-.08,1.33-.07.43.01.86-.09,1.29-.11.48-.02.96,0,1.44,0h1.5c-.02.15-.03.28-.06.51A6.2,6.2,0,0,1,173.7.71c.04.01.06.14.12.31.19-.14.35-.27.6-.46,1.9.14,3.89-.17,5.87.15.35.06.77-.31,1.11-.01.37.33.75-.42,1.07.06,1.09-.49,2.33.31,3.32-.48.29.12.5.21.7.29A9.981,9.981,0,0,1,190.71.5c.05-.02.22-.1.45-.21V.77c.48.23.68-.27,1.08-.46.4.04.87.08,1.33.13,0,.03-.01.07-.01.1a5.774,5.774,0,0,1,.9-.19c.97-.04,1.94.11,2.9-.01a.72.72,0,0,1,.36.01,1.281,1.281,0,0,0,1.45,0c.8.4,1.64-.28,2.49.12.34.15.86-.08,1.29-.13.45-.05.87.42,1.34.02.12-.1.39-.05.59-.02a4.065,4.065,0,0,0,1.67.1,11.472,11.472,0,0,1,2.12-.03c.06.09.14.22.23.34.19-.14.38-.28.6-.44.22.07.43.14.71.23.77-.39,1.65-.11,2.55-.23-.01.2-.01.32-.03.54.39-.18.73-.34.93-.43h2.21c.11.17.24.36.37.55.33-.14.63-.29.95-.39a5.472,5.472,0,0,1,1.14-.22,4.121,4.121,0,0,1,.98.17c.02.07.04.22.09.5.38-.23.73-.43,1.16-.68h1.47c.11.14.23.29.4.49.21-.15.43-.31.7-.5a10.454,10.454,0,0,0,1.85-.03c.63-.1,1.21.44,1.85.03.2.15.41.32.66.5.23-.17.45-.33.71-.52a42.936,42.936,0,0,1,4.86.17c.49-.44,1.25.02,1.96-.08a4.521,4.521,0,0,1,2.22.03c0,.01.11.16.24.33.72.2,1.34-.19,2.08-.43.55.67,1.25-.06,1.93.14s1.36-.25,2.1-.06a8.442,8.442,0,0,0,2.07-.01c.69-.01,1.39,0,2.11,0,.09.1.21.25.35.43.58-.2,1.16-.39,1.86-.63-.03.29-.04.41-.06.54.51.29.69-.25,1.08-.41h1.63a7.665,7.665,0,0,0,1.59.02c.49-.11,1,.18,1.57.01a4.716,4.716,0,0,1,1.55-.03,5.076,5.076,0,0,1,1.14.21c.48-.04.95-.43,1.44,0A3.829,3.829,0,0,1,261.9.34a21.707,21.707,0,0,0,2.42,0c.71-.1,1.39.28,2.12.11.19-.04.45.23.73.39.29-.12.61-.25.96-.4a2.877,2.877,0,0,0,.74.1,3.5,3.5,0,0,0,.78-.3c-.02.24-.03.36-.04.5.44.31.66-.18,1.09-.43.43.05.97.11,1.51.16.51-.05,1.02-.35,1.57.1,1.17-.63,2.44.11,3.72-.22.09.12.19.27.33.47.43-.11.94.03,1.32-.38a.352.352,0,0,1,.32-.09c1.06.42,2.17-.32,3.25.2.53.26,1.2.02,1.81.03.68,0,1.36-.02,2.04,0,.9.04,1.8.11,2.73.17.06-.09.15-.22.26-.38h2.85q.21.18.48.39c.17-.13.35-.27.55-.41a4.333,4.333,0,0,1,1.53.04c.46.18.94-.36,1.3.15.63-.37,1.37.36,1.97-.3.21.23.35.39.56.63l1.22-.53c.48,0,1.04-.03,1.6,0,.54.03,1.08.16,1.63.16a8.109,8.109,0,0,1,1.53-.13,7.4,7.4,0,0,0,1.56.01c.51.02,1.02.04,1.54.04.62,0,1.25-.01,1.88.01.19,0,.41.18.55.12,1.05-.44,2.13-.08,3.18-.24.08.14.15.24.24.39a1.173,1.173,0,0,1,.46-.08,2.16,2.16,0,0,1,.58.25c.26-.18.52-.35.85-.57.66.05,1.4.14,2.13.14.75,0,1.49-.09,2.29-.15-.01.22-.01.34-.02.47.07.01.17.05.22.02a1.6,1.6,0,0,1,1.87-.23c.12.07.37-.07.57-.12.65.6.66.53,1.5-.11l1.28.15c.49-.05,1.11-.11,1.7-.17.13.2.22.33.31.46.07.01.16.04.22.01A3.75,3.75,0,0,1,330.2.42a10.62,10.62,0,0,0,1.48-.07c.4.03.89-.05,1.07.45a6.491,6.491,0,0,1,1.51-.44c1.2-.06,2.4-.02,3.6-.01a1.554,1.554,0,0,1,.45.19A6.882,6.882,0,0,1,341.1.38a1.773,1.773,0,0,0,.52.02c1-.19,2.01.09,3.01-.03.13-.02.27.14.29.32h1.07c0,.04.01.09.01.13.31-.14.62-.27.93-.41.07.13.13.23.19.34.28-.13.56-.27.72-.34.77-.23,1.4.12,2.07-.05a14.162,14.162,0,0,1,2.06,0,3.228,3.228,0,0,1,1.82.09c.7-.04,1.24-.09,1.78-.11.6-.02,1.2,0,1.8,0h1.73c.07.12.15.24.27.43.64-.56,1.47.07,2.18-.37.16.13.35.27.46.35a17.233,17.233,0,0,1,3.01-.36c.89.04,1.88-.43,2.7.4.2-.15.38-.28.68-.51.42.08.96.18,1.49.27.48-.53,1.06.13,1.65-.16a1.647,1.647,0,0,1,1.59.16,7.906,7.906,0,0,1,2.63-.23c-.04.18-.07.28-.1.43.52.24.84-.27,1.4-.37.38.15.9.44,1.38-.1.25.2.43.34.62.49.15-.13.3-.25.49-.4h2.56c.24.12.56.27.9.44.3-.15.62-.3,1.01-.49,1.6.17,3.34-.33,5.03.5a1.158,1.158,0,0,1,1.51.06c.97-.66,1.89-.09,2.97.06.07-.06.25-.2.36-.28h1.77a3.767,3.767,0,0,1-.11.39c1.1-.31,2.17-.81,3.29-.26a5.9,5.9,0,0,1,2.98-.12c.96.05,1.91-.15,2.89-.08.08.13.16.26.25.41.19-.14.38-.27.65-.48a3.339,3.339,0,0,0,1.29.22c.48-.1.95-.04,1.42-.1a8.527,8.527,0,0,1,3.86.37c.14-.12.3-.24.49-.4h.97c-.01.12-.03.25-.05.41h1.01c-.02-.1-.03-.19-.05-.28a2.148,2.148,0,0,1,2.09.33c.2-.15.42-.32.63-.48.61-.12,1.21.5,1.7-.1.3.24.49.39.72.58.57-.24,1.14-.71,1.89-.42-.02.1-.05.2-.07.32.95.41,1.77-.36,2.67-.39v.5l1.15-.52c1.17.13,2.41-.21,3.64.24.3-.07.63-.15.97-.24v.56c.31-.21.57-.37.87-.57.97.18,2.02-.23,3.01.24.56-.36,1.19.06,1.71-.11a1.894,1.894,0,0,1,1.34.15,6.29,6.29,0,0,1,2.62-.25c.08.13.17.26.27.42.18-.14.36-.27.64-.47.37.15.8.33,1.19.5.72-.12,1.4-.25,2.22-.39.33.11.81.28,1.31.45.32-.17.63-.32.94-.48h1.43c-.02.17-.03.29-.05.55.35-.24.6-.42.73-.51.55-.03.95-.06,1.36-.07s.8,0,1.25,0c.07.11.15.24.25.4A9.293,9.293,0,0,1,454.85.6c.12.14.23.29.4.48.16-.17.31-.33.49-.53.24.08.5.17.76.26.4-.09.82-.19,1.24-.28.21.26.37.48.54.69.36-.18.75-.37.95-.46,1.07-.09,1.94-.15,2.9-.22-.02.2-.03.32-.05.45.5.28.7-.24,1.05-.4h.84c.17.13.36.27.54.41,1.03-.51,1.33-.51,2.14,0a4.388,4.388,0,0,1,2.7-.39c-.03.12-.06.24-.1.41,1.06-.11,2.05-.75,3.15-.37.12.13.23.27.35.41.58-.13,1.15-.29,1.72-.36.55-.06,1.1-.01,1.85-.01.05.03.27.19.56.4.11-.15.22-.29.41-.56.62.06,1.32.15,2.02.19.33.01.7-.19.98-.09a1.167,1.167,0,0,0,1,.03c.23-.1.59.05,1.01.11a14.3,14.3,0,0,1,5.18.05c.27-.08.69-.32.85-.2.58.41,1.25-.41,1.63.08a13.778,13.778,0,0,0,1.97-.05c.92-.15,1.8.21,2.75-.02a4.207,4.207,0,0,1,2.34.15,5.947,5.947,0,0,0,3.02-.02,4.617,4.617,0,0,1,1.03-.17,20.047,20.047,0,0,1,3.09.2A7.2,7.2,0,0,0,506,.63c.05.07.16.21.27.36.16-.12.31-.25.53-.42a2.744,2.744,0,0,0,1.59.46c.1-.15.19-.28.33-.49a10.455,10.455,0,0,0,3.01.03c.1.15.19.28.31.45A2.1,2.1,0,0,0,513.6.81a1.265,1.265,0,0,1,.93-.11,1.87,1.87,0,0,0,1.3-.14,1.977,1.977,0,0,0,1.75.08c.25-.14.67.04,1.19.09a4.516,4.516,0,0,1,.72-.14c.36-.04.72.02,1.08-.02.3-.03.59-.17.9-.21a9.267,9.267,0,0,1,1.08-.01c-.26.2-.38.28-.56.42h1.31c.12-.1.31-.25.54-.43a16.578,16.578,0,0,0,1.99-.02c.61-.07,1.19.43,1.78.05.1.16.19.29.31.48.23-.16.45-.31.74-.51.86.29,1.85-.34,2.69.22a10.875,10.875,0,0,1,4.51-.03,4.6,4.6,0,0,1,3.07.26A2.071,2.071,0,0,1,539.7.6a15.841,15.841,0,0,0,1.95-.02,12.39,12.39,0,0,0,1.92.08,9.269,9.269,0,0,1,2.68.12,3.42,3.42,0,0,0,1.2-.24c.17.21.29.36.41.51h1.18c.45-.19.88-.37,1.34-.57.04.32.07.51.1.71,2.57-.63,2.57-.63,3.13-.43a8.468,8.468,0,0,0,2.27-.25c.76-.31,1.43-.01,2.13-.04s1.42-.11,2.16-.17c.11.14.2.26.34.45.42-.25.88.16,1.44-.08.48-.21,1.12-.01,1.68-.06a3.173,3.173,0,0,1,1.62.18c.49-.45,1.14.36,1.62-.19.51.47,1.04-.28,1.59.06-.02.09-.05.19-.07.29.45.35.56-.13.82-.38a9.972,9.972,0,0,0,2.38,0c.78-.04,1.55.53,2.32-.01a2.626,2.626,0,0,0,1.95.1A3.449,3.449,0,0,1,577.4.59c.77.07,1.54.22,2.39.34.06-.04.21-.17.4-.32h1.84c.24.12.56.27.95.46.15-.12.33-.26.42-.33h1.19c.03.06.08.16.14.27.16-.13.32-.25.54-.43.59.09,1.27-.2,1.91.2a.306.306,0,0,0,.23.03c.38-.06.91-.33,1.11-.17.42.32.68-.07,1.01-.03.08.12.16.25.24.37.62-.23,1.22-.78,1.97-.02a3.311,3.311,0,0,1,.73-.35,5.187,5.187,0,0,1,.97-.01c-.04.16-.07.26-.11.4.64.22,1.31-.49,1.97.01.11-.09.23-.19.38-.32a4.7,4.7,0,0,0,.85.11,2.2,2.2,0,0,0,.85-.14,1.057,1.057,0,0,1,1.27.36c.16-.14.31-.26.5-.41h3.31c.12.14.24.29.39.47.24-.17.46-.33.69-.5.7,0,1.43.04,2.14-.01a18.047,18.047,0,0,0,1.95.03A14.215,14.215,0,0,1,609.8.58c-.04.31-.07.5-.12.92.33-.42.51-.65.7-.89h.98c.18.14.36.29.62.49.12-.16.22-.3.33-.43h3.39c.01.09.01.22.02.4.37-.17.72-.32,1.07-.48a17.621,17.621,0,0,0,2.18-.02c.75.03,1.51.01,2.31.01-.04.17-.07.27-.1.37.98-.08,1.97-.15,3.01-.24.16.11.39.25.65.41.29-.19.54-.37.81-.55.89.11,1.82-.21,2.73.25.41,0,.82-.49,1.29-.14-.03.11-.05.21-.11.41.77-.23,1.47-1.01,2.19-.07.19-.15.38-.29.57-.43a5.273,5.273,0,0,1,1.54.03c.53.18.98-.28,1.56.09.03.03.15.18.31.38.23-.17.44-.33.67-.5h1.32c.12.15.23.29.38.48.31-.16.63-.31,1.12-.55.63.09,1.43.19,2.24.3-.06.22-.08.32-.11.43,1,.08,1.87-.72,2.87-.27a4.9,4.9,0,0,1,2.57-.05c.6,0,1.02-.01,1.43.01a11.059,11.059,0,0,0,1.63.01,9.081,9.081,0,0,1,3.95.08c.34.1.76-.12,1.13-.09a5.329,5.329,0,0,0,1.64-.09c.33-.08.72.14,1.27.27.06-.04.31-.19.59-.37.26.17.48.32.71.48.27-.13.55-.27.89-.43.54.2,1.14.5,1.69-.03a2.9,2.9,0,0,0,2.57,0c.18.2.32.36.49.54q.36-.255.66-.48h.92c-.01.15-.02.27-.03.4.49.27.69-.24,1.15-.45a31.971,31.971,0,0,0,4.2.14c1.43.11,2.85-.25,4.31-.06-.03.13-.06.23-.1.4,1.1.02,2.15-.64,3.3-.25a3.408,3.408,0,0,1,2.29-.14A3.227,3.227,0,0,0,683.5.79l.7.85c.15-.3.26-.52.38-.78h3.1c.13.1.38.28.69.51.21-.18.41-.34.7-.59.47.05,1.05.14,1.64.15.53,0,1.05-.09,1.83-.16-.34.25-.45.33-.8.59.88-.19,1.5-.37,2.13-.44a11.792,11.792,0,0,1,2.14-.08,2.353,2.353,0,0,1,1.8.61c.13-.06.31-.15.48-.24-.02-.1-.05-.2-.07-.31.03-.02.07-.06.1-.06.75.03,1.5.07,2.24.11a5.554,5.554,0,0,0,1.06.09A9.825,9.825,0,0,1,704.48.9a11.532,11.532,0,0,0,1.87-.11,8.116,8.116,0,0,0,1.71.05,8.455,8.455,0,0,1,1.67-.02c.52.01,1.03.07,1.55.07.49,0,.99-.08,1.48-.06.38.01.76.16,1.14.19.32.03.62-.38.98,0a.683.683,0,0,0,.58.01c1.08-.44,2.21-.12,3.31-.19.13-.01.28.12.44.2.85-.41,1.78-.14,2.67-.23.33.16.65.32.97.48.32-.15.64-.31.99-.48A9.141,9.141,0,0,0,727.45.8c.21.16.4.3.56.42.39-.14.76-.26,1.19-.42a2.707,2.707,0,0,0,1.87.07,8.1,8.1,0,0,1,2.07.08c.62,0,1.25-.08,2.06-.14-.28.21-.39.29-.54.4.58.22,1-.16,1.44-.32.53-.2,1.03.11,1.57-.04a5.846,5.846,0,0,1,1.57-.03c.18.14.37.29.59.47a4.07,4.07,0,0,1,3.18-.27,4.917,4.917,0,0,1,2.64-.1,2.086,2.086,0,0,0,1.04.09c1.25-.41,11.03-.1,12.29-.17.17-.01.35.16.53.24a3.659,3.659,0,0,1,2.33-.16C762.01.96,765.44.935,768,.935Z"/>
</svg>
