<svg id="svg_line" data-name="レイヤー 1" xmlns="http://www.w3.org/2000/svg" width="765" height="22" viewBox="0 0 765 22" fill="#cccccc">
  <g>
    <path d="M214.788,9.9c.228.639.84,1.024.469,1.751a3.575,3.575,0,0,0-1.455.588c-.236.162.1.49-.18.624a.679.679,0,0,1-.68.157c-.938-.317-1.92.124-2.865-.206a2.068,2.068,0,0,0-1.05.085,4.269,4.269,0,0,1-2.935-.192,1.393,1.393,0,0,1-.624-.588c-.125-.417.215-.605.339-.881l-.288-.745a1.1,1.1,0,0,1,1.1-.6c1,.022,1.99.007,2.985.007h5.185Z"/>
    <path d="M100.569,12.087l.378-.623c-.082-.341-.522-.289-.564-.648a1.818,1.818,0,0,1,.8-.827l.288.628c.758-.7,1.805-.184,2.5-.7.422-.027.558.307.837.354a.943.943,0,0,1,.576-.116c.264.031-.043.543.371.444.42,0,.03-.442.293-.546.681-.3,1.415-.053,2.106-.176s1.245.271,1.932.384c.56.39.106,1.056.3,1.613l-.551.806a3.455,3.455,0,0,1-1.2.341c-.964-.05-1.928-.111-2.891-.166a1.278,1.278,0,0,0-.464-.01,10.325,10.325,0,0,1-3.2.165C101.487,13.031,101.263,12.838,100.569,12.087Z"/>
    <path d="M661.415,12.371c0-.013-.02-.12-.037-.226-.513-.1-.378.341-.479.581-.424.211-.73-.34-1.066-.166-.433,0-.6.347-.958.454a6.149,6.149,0,0,1-1.849-.1c.025-.187.046-.337.066-.487-.068-.033-.154-.111-.2-.092-.6.238-1.1.237-1.373-.481-.03-.079-.3-.049-.393-.206-.066-1.183.253-1.775,1.071-1.7.521.048,1-.094,1.512-.064.873.05,1.75.01,2.626.015a2,2,0,0,1,1.482.46c.66-.6,1.636.341,2.168-.5a2.2,2.2,0,0,1,1.11.889,3.788,3.788,0,0,1,.032,1.2,6.039,6.039,0,0,1-.586.606,1.49,1.49,0,0,1-1.641.343A6.748,6.748,0,0,1,661.415,12.371Z"/>
    <path d="M341.378,11.271c-.108-.444-.558-.307-.761-.542a1.352,1.352,0,0,1,.477-.766h8.415a1.556,1.556,0,0,1,.743.97,2.294,2.294,0,0,1-2.315,1.978,10.732,10.732,0,0,1-3.77-.057c-.165-.043-.374.085-.563.134,0-.385-.312-.451-.578-.56-.022-.149.146-.285.023-.442-.285-.107-.923.383-1.254.975-.623.046-.837-.666-1.387-.756A5.405,5.405,0,0,1,341.378,11.271Z"/>
    <path d="M364.58,9.887a2.318,2.318,0,0,1,.632,2.2,1.193,1.193,0,0,1-.733.678c-.255-.3.267-.386.082-.645-.434-.151-.619.207-.84.392-.1.253.2.255.157.517-1.449,0-2.918.048-4.383-.014a17.334,17.334,0,0,1-4.082-.875c.045-.214.117-.3.379-.367-.2-.254-.577-.326-.6-.657a1.045,1.045,0,0,1,.291-.6c1.236-.578,1.582.757,2.547.983-.193-.612-.669-.93-.949-1.451.861-.34,1.753.507,2.432-.127.37-.014.515.21.717.326.073-.008.176.012.212-.028.415-.458.962-.287,1.466-.319C362.835,9.834,363.751,10.19,364.58,9.887Z"/>
    <path d="M184.05,11.787a3.03,3.03,0,0,1-1.27,1.154c-.593.22-.627-.479-1.061-.368-.223.034-.126.227-.156.361a.674.674,0,0,1-.217.08c-1.422.008-2.844.008-4.265.014a1.716,1.716,0,0,1-1.413-.668c.566-.608-.02-1.4.365-2.106a.609.609,0,0,1,.9.183c.218.1.182-.2.489-.22a2.68,2.68,0,0,0,1.307.145c.281-.045.091-.282.3-.411.364-.078.226.564.693.515a2.663,2.663,0,0,1,2-.582c.955.044,1.914.011,2.83.011,1.044.88,1.135,1.627.351,2.591A2.11,2.11,0,0,1,184.05,11.787Z"/>
    <path d="M79.982,12.65c-.394.184-.738.157-.9.316-1.522-.157-2.934.263-4.473-.027-.783-1.19-2.055-.26-3.048-.411a.443.443,0,0,1-.236-.482c.014-.15.168-.278.074-.439A.394.394,0,0,0,71,11.4c-.15.035-.289.136-.45,0-.531-.566-.068-1.028,1.48-1.456.319.049.275.478.576.555.5-.117.172-.347-.1-.6a21.993,21.993,0,0,1,3.271.035c1,.159,1.958-.33,2.933.006.216.009.175.18.179.382l1.213.088A2.292,2.292,0,0,1,79.982,12.65Z"/>
    <path d="M499.48,10.44c.08-.21.14-.4-.2-.54a3.412,3.412,0,0,1-1.75.09c-2.02-.2-4.04-.07-6.15-.1-.14.5-.64.44-1.06.58.1.19.2.36.29.52-.05.26-.3.46-.22.81.52-.1.81-.67,1.36-.61.17.15.15.35.14.65-.55.2-.55.2-.9.76.85.64,3.2.42,4.43-.41.33.12.48.54.99.59.63-.03,1.41-.34,2.02.26,1.58-.51,1.76-.71,1.85-1.96C500.11,10.73,499.63,10.79,499.48,10.44Zm-3.05-.12c-.02-.01-.05-.06-.04-.08s.06-.04.09-.06a.528.528,0,0,1,.6.32C496.8,10.66,496.63,10.4,496.43,10.32Z"/>
    <path d="M468.524,12.753a1.137,1.137,0,0,1-1.262.228,2.151,2.151,0,0,0-1.767.1c-.395-.683-1.149-.6-1.782-.935-1.025.784-2.154-.044-3.279.2l-.223-1.08c.16-.476.77-.719.479-1.391,1.681.106,3.157-.207,4.619.279,1.17-.556,2.413-.017,3.551-.289l1.4,1.057a1.689,1.689,0,0,1-.672,1.758c-.479-.147-.331-1.011-1.007-.8C468.284,12.18,468.767,12.428,468.524,12.753Z"/>
    <path d="M754.128,11.793c-.213.154-.188.422-.3.687-.445.018-.759.343-1.14.554-1.162-.121-2.412.35-3.467-.616-.327.092-.456.517-.823.579-.753.12-1.33-.442-2.022-.477l-.067-.386a2.155,2.155,0,0,0-1.2.056,5.434,5.434,0,0,1-.061-1.566,1.926,1.926,0,0,1,.63-.724c1.5.07,3.047-.223,4.557.284.016.34-.426.086-.479.451.259-.117.55.127.733-.224a.259.259,0,0,0-.17-.268c.527-.508,1.087-.183,1.567.028.405.178.869.224,1.182.61.154-.328-.185-.514.023-.808a2.09,2.09,0,0,1,1.379.065c.044.353.088.719.133,1.085C754.091,11.1,754.2,11.511,754.128,11.793Z"/>
    <path d="M647.837,10l.813.77.617-.336c-.1.6.956.5.568,1.3-.406.161-.715.662-1.257.8-.3.078-.521-.189-.9-.2a5.571,5.571,0,0,1-3.335.7c-.959.016-1.917,0-2.929,0l-1.044-.665c-.639-1.222-.578-1.514.494-2.435.606-.111.884.43,1.263.656.52.044.475-.553,1.066-.661.356.01.954-.181,1.435.187.056.332-.2.416-.251.686a1.624,1.624,0,0,0,.87-.338c.227-.3-.166-.265-.063-.5A1.131,1.131,0,0,1,646,9.953c.185.248-.176.53.055.768a.367.367,0,0,0,.434.068c.337-.183-.2-.55.277-.791Z"/>
    <path d="M505.521,12.518c-.7-1.048.244-1.694.238-2.441,1.039-.545,2.019.239,2.989-.123.358.225.143.8.628.906l-.276.412c.722.2.717-.522,1.147-.831a3.43,3.43,0,0,0,1.26.023c.12-.153.045-.407.339-.538h1.919c.218.158-.019.5.3.593.192.152.367-.058.574-.034a.947.947,0,0,1,.506,1.182c-.358.672-1.067.906-1.609,1.369l-.685-.442c-.344-.1-.574.153-.811.151-.283-.15-.263-.55-.609-.562-.342.127-.278.578-.6.719-.871.34-1.776.017-2.673.088S506.427,12.478,505.521,12.518Z"/>
    <path d="M589.263,9.9c.752.3.764.882,1,1.395l-.352,1.1-1.262.084c-.344.077-.45-.419-.815-.335-.15.231.24.446-.023.7a1.043,1.043,0,0,1-1.321-.123c-.653.758-1.6.093-2.467.271a13.2,13.2,0,0,1-2.617.038l-1.084-.725c-.036-.421.4-.506.485-.805-.1-.121-.2-.091-.723.226-.292-.508,0-.881.253-1.262.427-.135.566.429.957.371.471.035.432-.406.577-.661.389.056.434.31.405.658.737-.011,1.494.213,2.132-.35l.384.5c.439-.2.339-.686.574-.971.258-.142.329.1.461.235.311-.05.511-.46.839-.337C587.56,10.245,588.449,9.832,589.263,9.9Z"/>
    <path d="M528.93,9.91h-2.94c-.36.1-.58.58-1.08.44-.32.06-.35-.38-.41-.39h-2.73c-.33.15-.49.54-.74.78-.2-.06-.35-.16-.47.02.15.2-.14.47.11.66.19.24.44-.19.65.05-.06.1-.12.2-.17.3l.05.07c.23.1.42.22.4.45-.08.24-.34-.01-.39.22a.386.386,0,0,0,.17.46,1.8,1.8,0,0,0,1.44-.17c.77-.51,1.62-.03,2.42-.24.45-.12.66.41,1.07.46h2.38c.25-.42.84-.4,1.23-.68a2.151,2.151,0,0,0,.34-.8C529.85,10.96,528.98,10.77,528.93,9.91Zm-2.68,1.92c.19-.26.38-.33.7.02C526.69,11.91,526.51,11.99,526.25,11.83Z"/>
    <path d="M169.91,10.21a12.888,12.888,0,0,0-3.49-.3c-.5.25-.18.72-.55.87-.45.03-.41-.56-.78-.62a17.836,17.836,0,0,0-2.52.87c-.06.01-.13-.05-.18-.07.07-.33.15-.66.24-1.02h-1.46c-.75.77-1.01,1.54-.65,1.85.11.03.22.06.33.1.15.2-.15.45.21.75.17.06.4.36.79.31.12-.38-.38-.31-.4-.62.4-.05.54-.51.92-.62a1.1,1.1,0,0,1-.03,1.27c2.49.12,2.49.12,3.72-1.1a1.309,1.309,0,0,0,.56.92,6.264,6.264,0,0,0,3.44-.2c.06-.47.37-.86.34-1.47C170.07,11.01,170.12,10.57,169.91,10.21Zm-2.92.32c.14-.14.25-.31.46-.19C167.41,10.68,167.18,10.57,166.99,10.53Z"/>
    <path d="M424.69,10.26c-.73-.71-1.5-.28-2.36-.08-.45-.3-.46-.34-.84-.21a1.156,1.156,0,0,1-.92.1,3.2,3.2,0,0,0-1.88-.15,6.313,6.313,0,0,1-2.08,0c-.07-.01-.15.05-.29.11a3.347,3.347,0,0,1-1.17,1.28c-.08.87.49,1.18,1.04,1.52a1.438,1.438,0,0,0,1.8-.26c.27.15.34.43.62.45a9.474,9.474,0,0,0,3.26-.66c.14.13.29.25.4.35a6.592,6.592,0,0,0,2.29-.6c-.22-.42.22-.9-.3-1.23a.8.8,0,0,1-1.08.37c.34-.15.69-.29,1.04-.43C424.33,10.62,424.69,10.66,424.69,10.26Zm-5.35.26a1.071,1.071,0,0,1,.94-.04A.981.981,0,0,1,419.34,10.52Z"/>
    <path d="M629.942,12.537l-.132.362c-1.376.483-2.715-.311-3.956-.11a1.078,1.078,0,0,1-.665-.789c.029-.138.138-.154.247-.2,1.1-.42,1.145-.474,1.429-1.588.571.41.924-.123,1.4-.344,2.128.18,4.319-.332,6.532.479.333.194-.329.88.38.951a1.979,1.979,0,0,1-.938,1.471c-.585-.122-1.316.066-1.652-.682a3.814,3.814,0,0,0-1.205.336l.061.489c-.373.215-.764.065-1.06.087a.467.467,0,0,1-.285-.445l.823-.364C630.219,11.871,630.219,11.871,629.942,12.537Z"/>
    <path d="M550.59,12.557c-.2-.278-.132-.793-.938-1,.824-.215,1.252-.407,1.367-.786.844-.578,1.883.379,2.447-.646.493.274.539.68.674,1.081a.624.624,0,0,0,.246-.708l.76-.508.253.546a.488.488,0,0,0,.625-.118c.171-.254-.2-.233-.107-.462h2.049c.328-.065.421.278.544.346.461.144.7-.235,1.108-.112.279.134-.145.464.1.685.191.174.46.324.478.635-.515.882-1.152-.538-1.7.126,0,.482.688.355.742.788a3.109,3.109,0,0,1-2.108.62c-1.673-.041-3.347-.025-5.02,0A2.211,2.211,0,0,1,550.59,12.557Z"/>
    <path d="M221.243,11.353a.525.525,0,0,1-.486-.275,2.614,2.614,0,0,0-.341-.386c.243-.469.848-.261,1.164-.59l1.278.594a2.137,2.137,0,0,1,.691-.73H229.5a1.065,1.065,0,0,0,.734.626c.383.469-.347.942.114,1.453l-.7.615c-.3.088-.387-.254-.646-.3-.481.026-.8.419-1.256.661-.957,0-1.953.026-2.946-.014a4.43,4.43,0,0,1-1.034-.3l.307-.634c-.667.126-1.092.681-1.713.7-.318.009-.489-.225-.687-.418l-.014-.3c-.048-.321.563-.571.1-.936a.4.4,0,0,0-.588-.172Z"/>
    <path d="M409.58,12.7c-.906-.257-1.792.616-2.739.213-.138-.32.228-.334.19-.571-.857-.186-1.689.51-2.6.084-.041-.109-.1-.252-.15-.394a1.447,1.447,0,0,0-1.257.458l-.452-.753c-.193.067-.112.26-.218.4-.41.071-.778-.205-1.222-.251l-.032.335c-.289.167-.518.047-.75-.212a3.19,3.19,0,0,1-.083-1.322c.107-.386.736-.222.646-.727,1.43.3,2.852-.22,4.273-.056s2.824-.176,4.26.045c.057.314-.377.227-.4.5.244.462.808.3,1.178.51C410.308,11.834,410.308,11.834,409.58,12.7Z"/>
    <path d="M431.655,11.3l.234-.376a1.262,1.262,0,0,0-.414-.747l-.064-.1a.62.62,0,0,1,.546-.177,32.393,32.393,0,0,0,3.634-.007c1.194.017,2.388.005,3.583.011a1.677,1.677,0,0,1,.324.063c.38.237.428.688.75.961l-.238.28c-.027.171.233.145.266.356-.015.777-.912.852-1.157,1.372a44.772,44.772,0,0,0-6.581.092c-.165-.519.233-.764.226-1.155a1.439,1.439,0,0,0-1-.492A.265.265,0,0,1,431.655,11.3Z"/>
    <path d="M12.989,10.192a2.692,2.692,0,0,1,.413-.157c.033-.008.094.108.216.257a1.9,1.9,0,0,1,1.449-.407,6.94,6.94,0,0,1,3.658.589,1.282,1.282,0,0,0,.682.135l.321.265.536.89-.2.238c-.291.059-.308-.249-.5-.289l-.592.161c-.211.152.105.347-.107.675a1.058,1.058,0,0,1-1.321.291c-1.284.391-2.6.082-3.9.194a9.531,9.531,0,0,0-1.749-.04c-.252.066-.512-.166-.737-.354a1.1,1.1,0,0,1,.543-.949c-.6-.153-.8-.633-1.283-1.286a3.39,3.39,0,0,0,2.13,0c.015.128-.033.288.161.328A.518.518,0,0,0,12.989,10.192Z"/>
    <path d="M709.93,11.19c-.29-.32.03-.85-.47-1.19-.33.09-.7.18-1.06.27-1.44-.62-1.57-.59-2.61.71-.38-.11-.24-.56-.49-.77l-1.02-.34a2.724,2.724,0,0,1-1.59.37c-.2.26-.02.54-.26.7-.06-.14-.12-.28-.19-.45-.42.02-.85-.31-1.29,0-.18-.04-.25-.32-.54-.21a1.719,1.719,0,0,0-.48.98c.64,1.8,1.28,2.12,2.63,1.35,1.03.71,2.19.3,3.46.46.21-.69.86-.82,1.31-1.23a6.648,6.648,0,0,0,.87.39,5.784,5.784,0,0,0,.93.13c.04.16-.27.18-.14.37a.411.411,0,0,0,.49-.12c.05-.19.12-.44.19-.72-.27-.06-.5-.11-.72-.16A2.645,2.645,0,0,0,709.93,11.19Zm-6.29.05c-.12-.3-.08-.45.12-.57C704.12,10.94,703.91,11.07,703.64,11.24Z"/>
    <path d="M255.081,12.605a12.5,12.5,0,0,1-2.07.437c-.733.041-1.375-.377-2.056-.273a1.566,1.566,0,0,1-.647-1.077c.073-.431.574-.378.636-.885l-.079-.325c.058-.079.121-.179.2-.268a.749.749,0,0,1,.734-.31c1.115.262,2.26-.25,3.364.141.22.078.376-.064.562-.085a2.877,2.877,0,0,1,1.176-.028,2.205,2.205,0,0,0,1.507-.026c.588.181.511.636.609,1.058a1.854,1.854,0,0,1,1.079,1.409c-.261.234-.491.242-.69-.065.5-.469.017-.523-.227-.714-.2.209.02.335-.025.478-.07.035-.15.113-.206.1-.437-.115-.868-.248-1.383-.4a.844.844,0,0,1-.887.558c0,.246.074.45-.179.576-.261.061-.478-.164-.741-.2-.007-.182-.137-.253-.309-.322Z"/>
    <path d="M379.3,11.481a.764.764,0,0,1-.764-.049,1.206,1.206,0,0,1-1,1.527,4.133,4.133,0,0,1-2.091-.259c-.109-.068.081-.3-.15-.37a.833.833,0,0,0-.919.724c-1.176-.232-2.423.247-3.678-.446-.176-.128-.253-.446-.388-.727.447-.552-.357-1.408.609-1.916a2.92,2.92,0,0,1,1.9.786l.427-.2-.229-.344a.662.662,0,0,1,.739-.3c.266.024.5.155.8.037a2.552,2.552,0,0,1,.83-.048c.287-.008.567.007.709.32.479-.424,1.079-.155,1.683-.371C377.907,10.757,378.706,10.976,379.3,11.481Z"/>
    <path d="M123.734,12.694c-.144-.024-.272-.168-.439-.061l-.065.379c-.708-.074-1.471.273-2.188-.32l-.689.221c-.233-.479.012-.981-.176-1.429-.374.015-.3.279-.25.451-.527.542-1.263.6-1.719,1.047-1.809.1-2.616-.41-2.725-1.8l.376.3c.533-.426.853-1.13,1.472-1.3.475-.112.512.318.8.4.405.084.684-.333,1.089-.344l.538.363a2.625,2.625,0,0,1,1.26-.519,5.407,5.407,0,0,0,1.135-.183.742.742,0,0,1,.649.418,3.644,3.644,0,0,0,1.723-.1c.342.339.515.864.965,1.029.115.482-.229.728-.268.952-.242.4-.694.013-.769.577l-.217-.6C124.037,12.343,124.008,12.637,123.734,12.694Z"/>
    <path d="M240.408,12.265l-.934.079c-.133.191.011.492-.374.625a10.97,10.97,0,0,1-2.519-.119c-1.158-.065-1.56-1.083-1.044-2.37a.975.975,0,0,1,.688-.1,3.349,3.349,0,0,1,.536.113c.287-.1.3-.391.331-.412a7.734,7.734,0,0,1,4.335.561,2.463,2.463,0,0,1,3.007-.392,1.2,1.2,0,0,1-.068,1.778l-.613-.171c-.668.669-1.672.715-2.382,1.195a1.23,1.23,0,0,1-.886-.731c.122-.052.317,0,.322-.224-.125-.143-.23-.333-.467-.175Z"/>
    <path d="M62.569,10c.217.409-.111.627-.053.935a1.355,1.355,0,0,1,.912.121l.561-.725-.234-.382c.377-.051.726-.165,1.019.121.044.382-.284.454-.472.627-.04.072-.005.129.1.136.362.023.734.019.888.522-.192.641-.968.531-1.335.86-.137.364.109.491.253.672-.129.206-.338.13-.513.133-2.079.036-2.706-.148-3.177-.955a8.85,8.85,0,0,0-1.653.567c-.517.205-1.158-.133-1.651.361-.535-.254-1.282-.064-1.629-.769.047-.259.423-.207.461-.489-.075-.258-.456-.085-.545-.4v-.5a.524.524,0,0,1,.446-.221,2.433,2.433,0,0,0,1.978-.565c.136-.149.279-.062.433-.056.83.032,1.662.023,2.491.069a2.33,2.33,0,0,0,.563-.125A1.844,1.844,0,0,1,62.569,10Z"/>
    <path d="M288.223,10.165c1-.418,1.239-.348,2.11.628-.39.758-.39.758-.328,1.4a2.038,2.038,0,0,1-1.966.848c-.753-.056-1.514-.012-2.089-.012-.489-.114-.556-.431-.755-.609l-.347.1c-.229-.408-.48-.75-1.035-.643-.536.1-1.079.171-1.665.261-.232.1-.1.523-.407.624-.3-.248.131-.529-.082-.759a2.754,2.754,0,0,0-1.125-.054c-.287-.288-.09-.648-.186-1.033a9.061,9.061,0,0,0,2.311-.549l.5.455c.362-.167.394-.689.545-.726a2.688,2.688,0,0,1,1.548-.179,7.258,7.258,0,0,0,2.307-.007c.212-.037.489-.092.62.2-.218.093-.553.065-.48.5A.861.861,0,0,0,288.223,10.165Z"/>
    <path d="M724.62,10.26a4.412,4.412,0,0,0-3.71.02,4.218,4.218,0,0,0-2.67-.29c-.09.45-.17.86-.26,1.29a3.365,3.365,0,0,0-2.4.02l-.08.07c.09.36-.29.53-.38.9,1.25,1.18,2.75.69,4.23.58.03-.27.06-.56.37-.68,1.24.74,1.24.74,1.76.56.09.13.17.27.36.24.5-.09.28-.73.72-.89a1.9,1.9,0,0,1,1.33.93C724.79,12.2,724.64,11.24,724.62,10.26Zm-7.49,2.41a.326.326,0,0,1-.1-.43c.2-.11.28.05.3.18C717.34,12.5,717.2,12.59,717.13,12.67Z"/>
    <path d="M50.041,10.2A2.467,2.467,0,0,1,49.8,11.97c-.136.2.208.423.084.671A4.747,4.747,0,0,1,47.041,13c-.3-.273-.469-.855-.963-.689-.452.085-.458.46-.86.682a1.425,1.425,0,0,1-.867-.023c-.081-.137.04-.337-.166-.393-.431-.093-.6.367-.975.432-.458,0-.937.01-1.414-.008-.1,0-.206-.108-.279-.148-.25-.3.185-.55.01-.756-.075-.372-.407-.423-.593-.657.4-.146.555-.546.8-.759.36-.139.58.161.916.119l.919-.842c.553.319,1.218-.256,1.838.158a5.045,5.045,0,0,0,1.813.724c.547-.2,1.212-.2,1.4-.852A1.5,1.5,0,0,1,50.041,10.2Z"/>
    <path d="M545.271,11.42c-.907.193-1.678.436-1.549,1.521a11.937,11.937,0,0,1-3.153-.207c-.152-.167.035-.308-.015-.478-.6-.141-1.138.536-1.772.181-.124-.506.454-.619.548-1.073a1.238,1.238,0,0,0-1.363.285c-.346.352-.491.9-1.146.879-.3-.028-.436-.281-.58-.518-.914-.064-1.043-.2-1.114-1.258l.933-.839h5.674c.375.094.266.43.463.592l.417-.262.34.268.615-.524c.712.16.437.815.6,1.237C544.5,11.51,544.824,10.941,545.271,11.42Z"/>
    <path d="M575.11,10.74a2.386,2.386,0,0,0-.78-.77h-5.96c-.18.16.19.36-.04.52-.81-.07-1.28.62-1.93.82v.71c.37.56,1.06.55,1.38,1.02,1.1-.1,2.18.23,3.17-.46a1.532,1.532,0,0,0,1.69.37,1.348,1.348,0,0,0,.32-.63c-.02-.28-.43-.29-.35-.61a.579.579,0,0,1,.69-.32,6.742,6.742,0,0,1,1.28,1.17C575.2,11.9,575.2,11.9,575.11,10.74Zm-4.44.78c-.1.01-.22.01-.65.03.56-.22.54-.54.71-.78A.567.567,0,0,1,570.67,11.52Z"/>
    <path d="M484.11,9.9c-.81.53-1.97-.48-2.64.71-.71-.9-1.32-.27-1.91.02-.36-.15-.68-.29-.98-.42-.32.2-.69.11-.91.39.04.4-.28.59-.47.83h-1.03a1.369,1.369,0,0,0,.31,1.53,3.476,3.476,0,0,0,1.76-.14,16.934,16.934,0,0,0,5.9-.08,3.1,3.1,0,0,1,1.05-1.4A1.251,1.251,0,0,0,484.11,9.9Zm-.72,2.04c-.25-.07-.44-.13-.88-.25.62-.07.87-.4,1.23-.54.28-.1.6-.02.94-.27C484.54,11.85,483.55,11.32,483.39,11.94Z"/>
    <path d="M140.029,11.668l.33.06c.024.384-.251.631-.371.9A2.854,2.854,0,0,1,138.1,13a4.5,4.5,0,0,1-1.532-.526c-1.273-.2-2.414.159-3.539.055-.447-.163-.38-.717-.775-.891-.459.11-.624.6-1.042.8a1.2,1.2,0,0,1-.829-.488l.08-.841c.25-.326.73-.327.89-.669,2.128-.119,2.128-.119,2.785.316a2.532,2.532,0,0,1,2.326-.872c.788.046,1.58.01,2.373.01.013.492-.5.581-.529,1.043l.652.889c.122-.678.329-1.2.948-1.394C140.184,10.953,140.184,10.953,140.029,11.668Z"/>
    <path d="M596.841,10.61l.775.677c.13-.44-.438-.891.1-1.227.757-.478,1.578.123,2.392-.116a3.029,3.029,0,0,1,2.3.376c0,.219-.279.415-.182.742.591-.247,1.383-.179,1.407-1.158a1.8,1.8,0,0,1,1.448.79,2.46,2.46,0,0,1-.216,1.679,4.638,4.638,0,0,1-2.824.617c-.267-.1-.233-.389-.3-.521-.364-.245-.572.213-.721.107-.534-.184-.516-.634-.82-.9-.335-.188-1.115.149-1.649.772l-.39-.248a1.606,1.606,0,0,0-1.17.557h-1.133c-.743-.29-.034-1.164-.771-1.334a1.928,1.928,0,0,1,.836-.99c.18.457-.411.923.178,1.4a.759.759,0,0,1,.411-.919Z"/>
    <path d="M617.713,10.186a1.625,1.625,0,0,1,1.25.543l.741-.247c.079.536-.3.82-.506,1.179,0,.364.527.332.571.746-.544.2-1.19.111-1.485.607-.337-.029-.321-.187-.282-.36a2.9,2.9,0,0,0-1.4-.176c-.48-.145-.292-.69-.618-.838-.527-.124-.494.468-.981.5l.684.287-1.037.347c-.5-.061-.545-.46-.8-.649a1.565,1.565,0,0,1-1.785.856l-.159-.383c-.514-.176-1.133.174-1.562-.279-.32-.411.362-.761-.153-1.134l.729-.149a.714.714,0,0,0,.768-.149l-.768.047a.512.512,0,0,1-.168-.684c.562.126.94-.477,1.573-.373a11.145,11.145,0,0,0,1.772.02c.056.34-.274.272-.41.666,0,.143.65.3.365.756l1.134-.574c.314-.264-.081-.614.345-.736.684-.055,1.414-.342,2.1.137-.185.413-.185.413.329.364C617.925,10.365,617.677,10.385,617.713,10.186Z"/>
    <path d="M450.575,12.5a3.236,3.236,0,0,1-1.173.012c-.188-.186.082-.635-.6-.583-.226.111-.55.506-1.04.566-.32-.051-.249-.507-.645-.544-.444.05-.726.475-1.147.78-.455-.377-.992-.679-.8-1.485a5.23,5.23,0,0,0,1.981-1.333,7.8,7.8,0,0,1,2.743.183.886.886,0,0,0,.7-.053,1.187,1.187,0,0,1,.452-.133c1.134-.011,2.267-.006,3.463-.006.073.535.19.978.694,1.114a3,3,0,0,1-.572,1.426c-.5-.072-.667-.475-.965-.723.064-.256.48-.054.493-.4a1.152,1.152,0,0,0-.818-.442l-.721.347.15.7-.783.957c-.437-.027-1.042.48-1.338-.338.3-.242.283-.456,0-.678C450.285,12.09,450.639,12.3,450.575,12.5Z"/>
    <path d="M733.8,10.215v.7a.747.747,0,0,0,1.088-.118,5.872,5.872,0,0,1,1.542-.913c.546.124.536.573.785.833.267-.062.484-.309.8-.257l-.039-.478a2.413,2.413,0,0,1,1.14-.042c.385.644.06.993-.426,1.283l.484.363c.025.782-.828.8-1.043,1.34-2.275.005-4.5.358-6.51-.123a.851.851,0,0,1-.525-.717c-.132-.287-.355.039-.519-.068l-.544-.577a1.747,1.747,0,0,1,1.127-.141c.31-.106.456-.45.811-.475-.133-.269-.477-.252-.488-.546.933-.187.933-.187,1.568.28.307-.023.423-.351.693-.434Z"/>
    <path d="M672.674,12.413c-.324.148-.141.4-.261.564A3,3,0,0,1,671.37,13c-.244-.134.013-.466-.278-.6-.205-.093-.5-.026-.615-.294-.118-.573.717-.72.621-1.3-.4-.107-.638.31-1.027.25a1.391,1.391,0,0,1,.776-1.135,19.267,19.267,0,0,0,4.452.441l.068.419c.828-.171,1.7-.434,2.353.415.445-.478.785-1.074,1.4-1.3.479.056.538.519.854.667a1.608,1.608,0,0,1-.026.908c-.911.08-1.006,1.194-1.881,1.538a.864.864,0,0,0-.925-.688l-1.378.66c-.374-.074-.345-.482-.721-.6l-1.74.333C673.012,12.783,672.918,12.325,672.674,12.413Z"/>
    <path d="M316.657,10.141l.759.237c.72-.321,1.431-.787,2.119.029-.182.414-.67.385-.966.738-.166.387-.208.965-.839,1.106-.427-.095-.114-.566-.384-.761a2.845,2.845,0,0,1-2.357,1.357c-.785.07-1.572.143-2.362.187a3.6,3.6,0,0,1-1.919-.43c-.232-.316.138-.422.189-.691l-.575-.715c-.1-.45.188-.669.28-1.073.437.265.849-.093,1.2.06.266.377-.218.4-.177.63.194.339.484.144.587,0a1.823,1.823,0,0,1,2.377-.748c.143.057.364-.082.534-.126.229.147-.172.57.342.573C315.848,10.605,316.135,10.248,316.657,10.141Z"/>
    <path d="M394.287,11.4a8.848,8.848,0,0,0-2.4,1.454.521.521,0,0,1-.428.15c-.614-.224-1.313-.334-1.63-1.031-.417.226-.091.643-.232.933-.308.2-.408-.149-.713-.2-.523.319-1.22.135-1.834.31-.247-.332.233-.668-.081-.871-.241-.413-.78.143-.925-.414-.246.126-.427.487-.777.22-.209-.229-.089-.517-.149-.848a2.8,2.8,0,0,0,.818-1.086l.8.428a7.158,7.158,0,0,0,2.567-.468c.239.184.3.513.634.6.431.166.83-.122,1.223-.256s.783,0,1.209-.251a2.572,2.572,0,0,1,2.446.239c.16.371-.439.393-.254.727Z"/>
    <path d="M90.74,12.283c-.341.061-.493-.189-.637-.442l-1.452.205c-.4-.1-.224-.547-.586-.682-.1,1.421-1.21,1.091-2.08,1.309,0-.647.848-.6.758-1.228-.346-.325-.684.3-1.152.039a1.031,1.031,0,0,1-.058-.986c.262-.365.478-.125.629-.179,1.92-.693,3.915-.3,5.872-.43a4.781,4.781,0,0,1,2.991.677c-.1.416-.608.539-.737.935.114.111.33.02.417.245-.789.052-1.187.6-1.53,1.328a1.477,1.477,0,0,0-1.941-.3c-.245-.1-.411-.205-.449-.43.262-.121.707.056.744-.464A1.255,1.255,0,0,0,90.74,12.283Z"/>
    <path d="M685.375,11c.163-.315.107-.67.4-.981,1.988-.238,4.038-.066,6.145-.129l-.718,1.1.879-.176c.426-.243.409-.719.829-.861.225-.062.272.2.428.31l.555-.325c.4.05.513.457.846.454.029.34.153.653-.2.852.176.15.418.261.3.649-.1.235-.477.273-.706.572a3.171,3.171,0,0,0-1.446-.119,1.707,1.707,0,0,1-1.987.35c-.052-.228.215-.311.232-.528-.543-.491-1.172.159-1.744-.249.037.466.451.272.533.533-.351.23-.806-.04-1.108.245C687.642,11.873,686.384,11.663,685.375,11Z"/>
    <path d="M28.631,10.093a2.571,2.571,0,0,1,1.7.78c.468-.14.574-.591.965-.668.488.027.987.319,1.411-.064l.546.368c.251-.154-.067-.366.089-.562a4.777,4.777,0,0,1,1.249-.036,1.289,1.289,0,0,1,.694.634c.035.238-.136.365-.276.547a1.419,1.419,0,0,1,.136,1.03c.045-.035-.039.061-.144.105a3.2,3.2,0,0,1-2.377.449.878.878,0,0,0-1.063.349c-.4-.19-.4-.641-.842-.667-.385.167-.7.584-1.276.626-.356-.657-1.174-.7-1.6-1.1-.6-.161-.811.338-1.26.415-.41-.018-.541-.594-.969-.54L25.59,11.2C26.487,10.4,27.841,10.924,28.631,10.093Z"/>
    <path d="M302.845,12.779c-.418.49-.962.142-1.447.254l-.527-.622a5.516,5.516,0,0,1-2.694-.031c-.675-.147-.754-.1-.988.589a2.411,2.411,0,0,1-2.019-1.363c.02-.594.337-.776.793-.747.645.041,1.288.117,1.967.181l.746-.648c.627.281,1.227.314,1.558-.518a2.609,2.609,0,0,0,1.474.082A2.925,2.925,0,0,1,304,10.25c.189-.022.316-.417.589-.288.164.142.144.246.082.361-.211.391-.969.355-.815,1.01.09.3.448.158.553.368-.016.639-.822.632-.87,1.248l-.611-.211c-.009-.246.32-.22.349-.424a1.565,1.565,0,0,0-.018-.333.617.617,0,0,0-.606.3A.394.394,0,0,0,302.845,12.779Z"/>
    <path d="M274,10.258l.475-.335a1.219,1.219,0,0,1,.774.658c-.161.547-.724.8-1.05,1.274-.108.2.211.174.217.345a1.115,1.115,0,0,1-.825.327c-.353-.178.251-.671-.332-.761a12.472,12.472,0,0,0-2.145.807l-1.029-.363.061-.465a.417.417,0,0,0-.562-.059c-.321.23-.625.484-.934.731a2.075,2.075,0,0,1-3.12-.165,3.148,3.148,0,0,0,.219-1.745c.191.039.378.068.558.117s.373.124.543.182c.577-.152,1.1-.524,1.649-.147.221-.252.051-.554.337-.67a4.895,4.895,0,0,1,2.877.365c.453.012.773-.372,1.207-.441C273.3,9.888,273.562,10.213,274,10.258Z"/>
    <path d="M333.949,10.818c.108.489-.162.81-.246,1.151l-.487.183c.175.213.455.37.278.712-.177.2-.418.163-.683.138-.311-1.188-1.6-.295-2.109-1.067-.321.426.158.632.065,1a.149.149,0,0,1-.24-.04.512.512,0,0,0-.7-.221,4.109,4.109,0,0,0-.91-1c-.332.377-.437.989-1.023,1.054a3.08,3.08,0,0,1-1.96-.044c-.53-.354-.3-1.1-.787-1.416A1.349,1.349,0,0,1,326.4,10.12a10.555,10.555,0,0,1,3.081-.186c.33.207.076.418.159.589.446.273.828-.146,1.029-.145.55.079.426.429.61.6C332.138,10.315,333.037,10.665,333.949,10.818Z"/>
    <path d="M147.158,12.6l-1.329-.1a2.556,2.556,0,0,1-.117-1.4c.225-.325.436-.073.642-.189l.12-.952a55.76,55.76,0,0,1,6.472.1c.3.04.134.383.418.61a1.039,1.039,0,0,1,.953.526c.239.332.72.359.92.751.047.379-.235.541-.554.765-.337-.851-1.362-.821-1.829-1.563a9.233,9.233,0,0,1-3.068,1.34c-.282-.028-.228-.278-.316-.494a2.522,2.522,0,0,0-2.033.278Z"/>
    <path d="M193.412,9.912c.163.049.167.162.151.342.207.231.6.025.832.263.273.142.185.493.365.7l.866-.5c.49-.013.54.393.728.6.552.039.689-.56,1.2-.658.339.316.286.843.583,1.236.475.077.51-.4.719-.685.229.068.463.163.713-.182.1-.141-.246-.114-.215-.318l.437-.455c.41.121.4.532.565.808a3.772,3.772,0,0,1-1.406,1.478,10.619,10.619,0,0,1-2.372-.1c-.328-.1,0-.486-.254-.584-.386-.112-.339.2-.412.392l-.654.143-.273.548a1.2,1.2,0,0,1-.9.015c-.3-.224.162-.579-.308-.81a12.347,12.347,0,0,1-3.1.277,1.8,1.8,0,0,1-.329-1.624,1.728,1.728,0,0,1,2.274-.324C192.786,10.251,192.929,9.894,193.412,9.912Z"/>
    <path d="M4.39,11.2c-.22.24-.06.43-.04.64-.2.14-.49.14-.61.4a.642.642,0,0,0-.13.1c-.27,0-.54-.12-.78.08-.01.39.49.1.6.51A28.18,28.18,0,0,1,0,12.977V9.907a19.627,19.627,0,0,1,4.99.283A2.515,2.515,0,0,1,4.39,11.2Z"/>
    <path d="M764.75,10.541c.09.02.17.12.26.18v1.6c-.32.13-.29.52-.58.68l-2.63.019a.43.43,0,0,1-.48-.41.244.244,0,0,1,.09-.11,2.817,2.817,0,0,1,.79-1.49c.28-.48-.33-.56-.21-.9a7.7,7.7,0,0,1,2.39-.129C764.6,10.121,764.42,10.491,764.75,10.541Z"/>
    <path d="M431.761,11.379c.272.4.024.721-.193,1.018.133.191.411.066.5.31L431.8,13l-1.052-.318a1.415,1.415,0,0,1-.432-1.076c.52.178.912-.117,1.335-.312A.265.265,0,0,0,431.761,11.379Z"/>
    <path d="M394.287,11.4l.272-.363.509-.169a1.049,1.049,0,0,1-.141,1.351C394.478,12.1,394.473,11.682,394.287,11.4Z"/>
    <path d="M379.882,12.156c-.165.592-.547.613-.895.823V11.922C379.391,11.68,379.427,12.471,379.882,12.156Z"/>
    <path d="M147.158,12.6l.279-.326c.326.03.7-.03.82.5C147.845,12.918,147.458,13.186,147.158,12.6Z"/>
    <path d="M20.264,11.764l-.536-.89.321-.264C20.551,10.916,20.59,11.122,20.264,11.764Z"/>
    <path d="M334.619,12.117c.081-.432.076-.734.315-.955.077.029.184.037.2.083C335.314,11.647,335.318,11.981,334.619,12.117Z"/>
    <path d="M20.049,10.61l-.321.264-.321-.265c.12-.207-.031-.549.321-.647C20.079,10.06,19.929,10.4,20.049,10.61Z"/>
    <path d="M715.5,11.366l-.384-.3c.15-.434.256-.854.831-.565.034.349-.169.235-.308.246-.148.166-.083.364-.061.556Z"/>
    <path d="M431.475,10.172a.649.649,0,0,1-.98.317.64.64,0,0,1,.916-.414Z"/>
    <path d="M4.384,12.318c-.061.2-.287.369-.009.664a.674.674,0,0,1-.766-.644c.042-.034.084-.067.128-.1Z"/>
    <path d="M521.2,11.844c-.333.39-.635.253-1.087-.073h1.033Z"/>
    <path d="M596.841,10.61l-.325.3c-.371-.287-.2-.491.142-.707Z"/>
    <path d="M566.605,9.965c.348.182.468.387.354.72C566.646,10.576,566.576,10.344,566.605,9.965Z"/>
    <path d="M761.318,12.606l-.358.075c-.127-.34.126-.517.332-.823l.115.644A.263.263,0,0,0,761.318,12.606Z"/>
    <path d="M331.265,10.026a.559.559,0,0,1,.773.032C331.751,10.477,331.522,10.216,331.265,10.026Z"/>
    <path d="M255.081,12.605l.365-.221c.172.069.3.14.309.322l-.487.221C255.09,12.843,255.1,12.718,255.081,12.605Z"/>
    <path d="M4.762,11.442c.178.082.326.2.28.447-.205.165-.272-.045-.349-.151A.179.179,0,0,1,4.762,11.442Z"/>
    <path d="M733.745,10.122c.147-.256.363-.231.605-.186-.011.518-.308.334-.547.279Z"/>
    <path d="M754.2,11.855a.318.318,0,0,1,.229-.008l.344.393C754.393,12.333,754.138,12.316,754.2,11.855Z"/>
    <path d="M221.658,12.054l.014.3c-.167.029-.294.239-.56.074A.52.52,0,0,1,221.658,12.054Z"/>
    <path d="M116.232,10.012c.26-.121.407-.144.587.019C116.649,10.3,116.5,10.421,116.232,10.012Z"/>
  </g>
</svg>
