<svg id="svg_line" data-name="レイヤー 1" xmlns="http://www.w3.org/2000/svg" width="765" height="22" viewBox="0 0 765 22" fill="#cccccc">
  <g>
    <path d="M10.854,6.353a.5.5,0,1,0-.708-.707L5.854,9.939l.707.707Zm-6.415,5,.707.707L.854,16.353a.5.5,0,0,1-.708-.707Zm6.415,5a.5.5,0,0,0,0-.707l-10-10a.5.5,0,1,0-.708.707l10,10a.5.5,0,0,0,.708,0Z"/>
    <path d="M21.942,6.353a.5.5,0,1,0-.707-.707L16.942,9.939l.707.707Zm-6.414,5,.707.707-4.293,4.293a.5.5,0,0,1-.707-.707Zm6.414,5a.5.5,0,0,0,0-.707l-10-10a.5.5,0,1,0-.707.707l10,10a.5.5,0,0,0,.707,0Z"/>
    <path d="M33.03,6.353a.5.5,0,1,0-.707-.707L28.03,9.939l.707.707Zm-6.414,5,.707.707L23.03,16.353a.5.5,0,0,1-.707-.707Zm6.414,5a.5.5,0,0,0,0-.707l-10-10a.5.5,0,1,0-.707.707l10,10a.5.5,0,0,0,.707,0Z"/>
    <path d="M44.118,6.353a.5.5,0,0,0-.707-.707L39.118,9.939l.707.707Zm-6.414,5,.707.707-4.293,4.293a.5.5,0,0,1-.707,0,.5.5,0,0,1,0-.707Zm6.414,5a.5.5,0,0,0,0-.707l-10-10a.5.5,0,1,0-.707.707l10,10a.5.5,0,0,0,.707,0Z"/>
    <path d="M55.206,6.353a.5.5,0,1,0-.707-.707L50.206,9.939l.707.707Zm-6.414,5,.707.707-4.293,4.293a.5.5,0,0,1-.707,0,.5.5,0,0,1,0-.707Zm6.414,5a.5.5,0,0,0,0-.707l-10-10a.5.5,0,0,0-.707.707l10,10a.5.5,0,0,0,.707,0Z"/>
    <path d="M66.3,6.353a.5.5,0,0,0-.707-.707L61.3,9.939l.707.707Zm-6.414,5,.707.707L56.3,16.353a.5.5,0,0,1-.707-.707Zm6.414,5a.5.5,0,0,0,0-.707l-10-10a.5.5,0,0,0-.707.707l10,10a.5.5,0,0,0,.707,0Z"/>
    <path d="M77.383,6.353a.5.5,0,1,0-.707-.707L72.383,9.939l.707.707Zm-6.414,5,.707.707-4.293,4.293a.5.5,0,0,1-.707-.707Zm6.414,5a.5.5,0,0,0,0-.707l-10-10a.5.5,0,1,0-.707.707l10,10a.5.5,0,0,0,.707,0Z"/>
    <path d="M88.471,6.353a.5.5,0,1,0-.707-.707L83.471,9.939l.707.707Zm-6.414,5,.707.707-4.293,4.293a.5.5,0,0,1-.707,0,.5.5,0,0,1,0-.707Zm6.414,5a.5.5,0,0,0,0-.707l-10-10a.5.5,0,0,0-.707.707l10,10a.5.5,0,0,0,.707,0Z"/>
    <path d="M99.559,6.353a.5.5,0,1,0-.707-.707L94.559,9.939l.707.707Zm-6.414,5,.707.707-4.293,4.293a.5.5,0,0,1-.707,0,.5.5,0,0,1,0-.707Zm6.414,5a.5.5,0,0,0,0-.707l-10-10a.5.5,0,1,0-.707.707l10,10a.5.5,0,0,0,.707,0Z"/>
    <path d="M110.648,6.353a.5.5,0,1,0-.707-.707l-4.293,4.293.707.707Zm-6.414,5,.707.707-4.293,4.293a.5.5,0,0,1-.707-.707Zm6.414,5a.5.5,0,0,0,0-.707l-10-10a.5.5,0,1,0-.707.707l10,10a.5.5,0,0,0,.707,0Z"/>
    <path d="M121.736,6.353a.5.5,0,0,0-.707-.707l-4.293,4.293.707.707Zm-6.414,5,.707.707-4.293,4.293a.5.5,0,1,1-.707-.707Zm6.414,5a.5.5,0,0,0,0-.707l-10-10a.5.5,0,1,0-.707.707l10,10a.5.5,0,0,0,.707,0Z"/>
    <path d="M132.824,6.353a.5.5,0,1,0-.707-.707l-4.293,4.293.707.707Zm-6.414,5,.707.707-4.293,4.293a.5.5,0,0,1-.707-.707Zm6.414,5a.5.5,0,0,0,0-.707l-10-10a.5.5,0,1,0-.707.707l10,10a.5.5,0,0,0,.707,0Z"/>
    <path d="M143.912,6.353a.5.5,0,1,0-.707-.707l-4.293,4.293.707.707Zm-6.414,5,.707.707-4.293,4.293a.5.5,0,0,1-.707,0,.5.5,0,0,1,0-.707Zm6.414,5a.5.5,0,0,0,0-.707l-10-10a.5.5,0,1,0-.707.707l10,10a.5.5,0,0,0,.707,0Z"/>
    <path d="M155,6.353a.5.5,0,1,0-.707-.707L150,9.939l.707.707Zm-6.414,5,.707.707L145,16.353a.5.5,0,0,1-.707-.707Zm6.414,5a.5.5,0,0,0,0-.707l-10-10a.5.5,0,1,0-.707.707l10,10a.5.5,0,0,0,.707,0Z"/>
    <path d="M166.089,6.353a.5.5,0,1,0-.707-.707l-4.293,4.293.707.707Zm-6.414,5,.707.707-4.293,4.293a.5.5,0,0,1-.707-.707Zm6.414,5a.5.5,0,0,0,0-.707l-10-10a.5.5,0,1,0-.707.707l10,10a.5.5,0,0,0,.707,0Z"/>
    <path d="M177.177,6.353a.5.5,0,1,0-.707-.707l-4.293,4.293.707.707Zm-6.414,5,.707.707-4.293,4.293a.5.5,0,0,1-.707-.707Zm6.414,5a.5.5,0,0,0,0-.707l-10-10a.5.5,0,1,0-.707.707l10,10a.5.5,0,0,0,.707,0Z"/>
    <path d="M188.265,6.353a.5.5,0,1,0-.707-.707l-4.293,4.293.707.707Zm-6.414,5,.707.707-4.293,4.293a.5.5,0,0,1-.707,0,.5.5,0,0,1,0-.707Zm6.414,5a.5.5,0,0,0,0-.707l-10-10a.5.5,0,1,0-.707.707l10,10a.5.5,0,0,0,.707,0Z"/>
    <path d="M199.354,6.353a.5.5,0,1,0-.708-.707l-4.292,4.293.707.707Zm-6.415,5,.707.707-4.292,4.293a.5.5,0,1,1-.708-.707Zm6.415,5a.5.5,0,0,0,0-.707l-10-10a.5.5,0,1,0-.708.707l10,10a.5.5,0,0,0,.708,0Z"/>
    <path d="M210.442,6.353a.5.5,0,1,0-.707-.707l-4.293,4.293.707.707Zm-6.414,5,.707.707-4.293,4.293a.5.5,0,0,1-.707-.707Zm6.414,5a.5.5,0,0,0,0-.707l-10-10a.5.5,0,1,0-.707.707l10,10a.5.5,0,0,0,.707,0Z"/>
    <path d="M221.53,6.353a.5.5,0,1,0-.707-.707L216.53,9.939l.707.707Zm-6.414,5,.707.707-4.293,4.293a.5.5,0,0,1-.707-.707Zm6.414,5a.5.5,0,0,0,0-.707l-10-10a.5.5,0,1,0-.707.707l10,10a.5.5,0,0,0,.707,0Z"/>
    <path d="M232.618,6.353a.5.5,0,1,0-.707-.707l-4.293,4.293.707.707Zm-6.414,5,.707.707-4.293,4.293a.5.5,0,0,1-.707,0,.5.5,0,0,1,0-.707Zm6.414,5a.5.5,0,0,0,0-.707l-10-10a.5.5,0,1,0-.707.707l10,10a.5.5,0,0,0,.707,0Z"/>
    <path d="M243.706,6.353A.5.5,0,1,0,243,5.646l-4.293,4.293.707.707Zm-6.414,5,.707.707-4.293,4.293a.5.5,0,0,1-.707,0,.5.5,0,0,1,0-.707Zm6.414,5a.5.5,0,0,0,0-.707l-10-10a.5.5,0,1,0-.707.707l10,10a.5.5,0,0,0,.707,0Z"/>
    <path d="M254.8,6.353a.5.5,0,1,0-.707-.707L249.8,9.939l.707.707Zm-6.414,5,.707.707L244.8,16.353a.5.5,0,0,1-.707-.707Zm6.414,5a.5.5,0,0,0,0-.707l-10-10a.5.5,0,1,0-.707.707l10,10a.5.5,0,0,0,.707,0Z"/>
    <path d="M265.883,6.353a.5.5,0,1,0-.707-.707l-4.293,4.293.707.707Zm-6.414,5,.707.707-4.293,4.293a.5.5,0,1,1-.707-.707Zm6.414,5a.5.5,0,0,0,0-.707l-10-10a.5.5,0,1,0-.707.707l10,10a.5.5,0,0,0,.707,0Z"/>
    <path d="M276.971,6.353a.5.5,0,1,0-.707-.707l-4.293,4.293.707.707Zm-6.414,5,.707.707-4.293,4.293a.5.5,0,0,1-.707,0,.5.5,0,0,1,0-.707Zm6.414,5a.5.5,0,0,0,0-.707l-10-10a.5.5,0,1,0-.707.707l10,10a.5.5,0,0,0,.707,0Z"/>
    <path d="M288.059,6.353a.5.5,0,1,0-.707-.707l-4.293,4.293.707.707Zm-6.414,5,.707.707-4.293,4.293a.5.5,0,0,1-.707,0,.5.5,0,0,1,0-.707Zm6.414,5a.5.5,0,0,0,0-.707l-10-10a.5.5,0,0,0-.707.707l10,10a.5.5,0,0,0,.707,0Z"/>
    <path d="M299.148,6.353a.5.5,0,0,0-.707-.707l-4.293,4.293.707.707Zm-6.414,5,.707.707-4.293,4.293a.5.5,0,1,1-.707-.707Zm6.414,5a.5.5,0,0,0,0-.707l-10-10a.5.5,0,1,0-.707.707l10,10a.5.5,0,0,0,.707,0Z"/>
    <path d="M310.236,6.353a.5.5,0,1,0-.707-.707l-4.293,4.293.707.707Zm-6.414,5,.707.707-4.293,4.293a.5.5,0,0,1-.707-.707Zm6.414,5a.5.5,0,0,0,0-.707l-10-10a.5.5,0,1,0-.707.707l10,10a.5.5,0,0,0,.707,0Z"/>
    <path d="M321.324,6.353a.5.5,0,1,0-.707-.707l-4.293,4.293.707.707Zm-6.414,5,.707.707-4.293,4.293a.5.5,0,0,1-.707-.707Zm6.414,5a.5.5,0,0,0,0-.707l-10-10a.5.5,0,1,0-.707.707l10,10a.5.5,0,0,0,.707,0Z"/>
    <path d="M332.412,6.353a.5.5,0,1,0-.707-.707l-4.293,4.293.707.707Zm-6.414,5,.707.707-4.293,4.293a.5.5,0,0,1-.707,0,.5.5,0,0,1,0-.707Zm6.414,5a.5.5,0,0,0,0-.707l-10-10a.5.5,0,1,0-.707.707l10,10a.5.5,0,0,0,.707,0Z"/>
    <path d="M343.5,6.353a.5.5,0,1,0-.707-.707L338.5,9.939l.707.707Zm-6.414,5,.707.707L333.5,16.353a.5.5,0,0,1-.707-.707Zm6.414,5a.5.5,0,0,0,0-.707l-10-10a.5.5,0,1,0-.707.707l10,10a.5.5,0,0,0,.707,0Z"/>
    <path d="M354.589,6.353a.5.5,0,1,0-.707-.707l-4.293,4.293.707.707Zm-6.414,5,.707.707-4.293,4.293a.5.5,0,0,1-.707-.707Zm6.414,5a.5.5,0,0,0,0-.707l-10-10a.5.5,0,1,0-.707.707l10,10a.5.5,0,0,0,.707,0Z"/>
    <path d="M365.677,6.353a.5.5,0,1,0-.707-.707l-4.293,4.293.707.707Zm-6.414,5,.707.707-4.293,4.293a.5.5,0,0,1-.707-.707Zm6.414,5a.5.5,0,0,0,0-.707l-10-10a.5.5,0,1,0-.707.707l10,10a.5.5,0,0,0,.707,0Z"/>
    <path d="M376.765,6.353a.5.5,0,1,0-.707-.707l-4.293,4.293.707.707Zm-6.414,5,.707.707-4.293,4.293a.5.5,0,0,1-.707,0,.5.5,0,0,1,0-.707Zm6.414,5a.5.5,0,0,0,0-.707l-10-10a.5.5,0,1,0-.707.707l10,10a.5.5,0,0,0,.707,0Z"/>
    <path d="M387.854,6.353a.5.5,0,1,0-.708-.707l-4.292,4.293.707.707Zm-6.415,5,.707.707-4.292,4.293a.5.5,0,0,1-.708-.707Zm6.415,5a.5.5,0,0,0,0-.707l-10-10a.5.5,0,1,0-.708.707l10,10a.5.5,0,0,0,.708,0Z"/>
    <path d="M398.942,6.353a.5.5,0,1,0-.707-.707l-4.293,4.293.707.707Zm-6.414,5,.707.707-4.293,4.293a.5.5,0,0,1-.707-.707Zm6.414,5a.5.5,0,0,0,0-.707l-10-10a.5.5,0,1,0-.707.707l10,10a.5.5,0,0,0,.707,0Z"/>
    <path d="M410.03,6.353a.5.5,0,1,0-.707-.707L405.03,9.939l.707.707Zm-6.414,5,.707.707-4.293,4.293a.5.5,0,0,1-.707-.707Zm6.414,5a.5.5,0,0,0,0-.707l-10-10a.5.5,0,1,0-.707.707l10,10a.5.5,0,0,0,.707,0Z"/>
    <path d="M421.118,6.353a.5.5,0,1,0-.707-.707l-4.293,4.293.707.707Zm-6.414,5,.707.707-4.293,4.293a.5.5,0,0,1-.707,0,.5.5,0,0,1,0-.707Zm6.414,5a.5.5,0,0,0,0-.707l-10-10a.5.5,0,1,0-.707.707l10,10a.5.5,0,0,0,.707,0Z"/>
    <path d="M432.206,6.353a.5.5,0,1,0-.707-.707l-4.293,4.293.707.707Zm-6.414,5,.707.707-4.293,4.293a.5.5,0,0,1-.707,0,.5.5,0,0,1,0-.707Zm6.414,5a.5.5,0,0,0,0-.707l-10-10a.5.5,0,1,0-.707.707l10,10a.5.5,0,0,0,.707,0Z"/>
    <path d="M443.3,6.353a.5.5,0,1,0-.707-.707L438.3,9.939l.707.707Zm-6.414,5,.707.707L433.3,16.353a.5.5,0,0,1-.707-.707Zm6.414,5a.5.5,0,0,0,0-.707l-10-10a.5.5,0,1,0-.707.707l10,10a.5.5,0,0,0,.707,0Z"/>
    <path d="M454.383,6.353a.5.5,0,1,0-.707-.707l-4.293,4.293.707.707Zm-6.414,5,.707.707-4.293,4.293a.5.5,0,0,1-.707-.707Zm6.414,5a.5.5,0,0,0,0-.707l-10-10a.5.5,0,1,0-.707.707l10,10a.5.5,0,0,0,.707,0Z"/>
    <path d="M465.471,6.353a.5.5,0,1,0-.707-.707l-4.293,4.293.707.707Zm-6.414,5,.707.707-4.293,4.293a.5.5,0,0,1-.707,0,.5.5,0,0,1,0-.707Zm6.414,5a.5.5,0,0,0,0-.707l-10-10a.5.5,0,1,0-.707.707l10,10a.5.5,0,0,0,.707,0Z"/>
    <path d="M476.559,6.353a.5.5,0,1,0-.707-.707l-4.293,4.293.707.707Zm-6.414,5,.707.707-4.293,4.293a.5.5,0,0,1-.707,0,.5.5,0,0,1,0-.707Zm6.414,5a.5.5,0,0,0,0-.707l-10-10a.5.5,0,0,0-.707.707l10,10a.5.5,0,0,0,.707,0Z"/>
    <path d="M487.648,6.353a.5.5,0,0,0-.707-.707l-4.293,4.293.707.707Zm-6.414,5,.707.707-4.293,4.293a.5.5,0,1,1-.707-.707Zm6.414,5a.5.5,0,0,0,0-.707l-10-10a.5.5,0,1,0-.707.707l10,10a.5.5,0,0,0,.707,0Z"/>
    <path d="M498.736,6.353a.5.5,0,1,0-.707-.707l-4.293,4.293.707.707Zm-6.414,5,.707.707-4.293,4.293a.5.5,0,0,1-.707-.707Zm6.414,5a.5.5,0,0,0,0-.707l-10-10a.5.5,0,1,0-.707.707l10,10a.5.5,0,0,0,.707,0Z"/>
    <path d="M509.824,6.353a.5.5,0,1,0-.707-.707l-4.293,4.293.707.707Zm-6.414,5,.707.707-4.293,4.293a.5.5,0,0,1-.707-.707Zm6.414,5a.5.5,0,0,0,0-.707l-10-10a.5.5,0,1,0-.707.707l10,10a.5.5,0,0,0,.707,0Z"/>
    <path d="M520.912,6.353a.5.5,0,1,0-.707-.707l-4.293,4.293.707.707Zm-6.414,5,.707.707-4.293,4.293a.5.5,0,0,1-.707,0,.5.5,0,0,1,0-.707Zm6.414,5a.5.5,0,0,0,0-.707l-10-10a.5.5,0,1,0-.707.707l10,10a.5.5,0,0,0,.707,0Z"/>
    <path d="M532,6.353a.5.5,0,1,0-.707-.707L527,9.939l.707.707Zm-6.414,5,.707.707L522,16.353a.5.5,0,0,1-.707-.707Zm6.414,5a.5.5,0,0,0,0-.707l-10-10a.5.5,0,0,0-.707.707l10,10a.5.5,0,0,0,.707,0Z"/>
    <path d="M543.089,6.353a.5.5,0,1,0-.707-.707l-4.293,4.293.707.707Zm-6.414,5,.707.707-4.293,4.293a.5.5,0,0,1-.707-.707Zm6.414,5a.5.5,0,0,0,0-.707l-10-10a.5.5,0,1,0-.707.707l10,10a.5.5,0,0,0,.707,0Z"/>
    <path d="M554.177,6.353a.5.5,0,0,0-.707-.707l-4.293,4.293.707.707Zm-6.414,5,.707.707-4.293,4.293a.5.5,0,1,1-.707-.707Zm6.414,5a.5.5,0,0,0,0-.707l-10-10a.5.5,0,1,0-.707.707l10,10a.5.5,0,0,0,.707,0Z"/>
    <path d="M565.265,6.353a.5.5,0,0,0-.707-.707l-4.293,4.293.707.707Zm-6.414,5,.707.707-4.293,4.293a.5.5,0,0,1-.707,0,.5.5,0,0,1,0-.707Zm6.414,5a.5.5,0,0,0,0-.707l-10-10a.5.5,0,1,0-.707.707l10,10a.5.5,0,0,0,.707,0Z"/>
    <path d="M576.354,6.353a.5.5,0,1,0-.708-.707l-4.292,4.293.707.707Zm-6.415,5,.707.707-4.292,4.293a.5.5,0,0,1-.708-.707Zm6.415,5a.5.5,0,0,0,0-.707l-10-10a.5.5,0,1,0-.708.707l10,10a.5.5,0,0,0,.708,0Z"/>
    <path d="M587.442,6.353a.5.5,0,1,0-.707-.707l-4.293,4.293.707.707Zm-6.414,5,.707.707-4.293,4.293a.5.5,0,0,1-.707-.707Zm6.414,5a.5.5,0,0,0,0-.707l-10-10a.5.5,0,0,0-.707.707l10,10a.5.5,0,0,0,.707,0Z"/>
    <path d="M598.53,6.353a.5.5,0,1,0-.707-.707L593.53,9.939l.707.707Zm-6.414,5,.707.707-4.293,4.293a.5.5,0,0,1-.707-.707Zm6.414,5a.5.5,0,0,0,0-.707l-10-10a.5.5,0,0,0-.707.707l10,10a.5.5,0,0,0,.707,0Z"/>
    <path d="M609.618,6.353a.5.5,0,1,0-.707-.707l-4.293,4.293.707.707Zm-6.414,5,.707.707-4.293,4.293a.5.5,0,0,1-.707,0,.5.5,0,0,1,0-.707Zm6.414,5a.5.5,0,0,0,0-.707l-10-10a.5.5,0,1,0-.707.707l10,10a.5.5,0,0,0,.707,0Z"/>
    <path d="M620.706,6.353A.5.5,0,0,0,620,5.646l-4.293,4.293.707.707Zm-6.414,5,.707.707-4.293,4.293a.5.5,0,0,1-.707,0,.5.5,0,0,1,0-.707Zm6.414,5a.5.5,0,0,0,0-.707l-10-10a.5.5,0,1,0-.707.707l10,10a.5.5,0,0,0,.707,0Z"/>
    <path d="M631.795,6.353a.5.5,0,0,0-.707-.707l-4.293,4.293.707.707Zm-6.414,5,.707.707-4.293,4.293a.5.5,0,1,1-.707-.707Zm6.414,5a.5.5,0,0,0,0-.707l-10-10a.5.5,0,1,0-.707.707l10,10a.5.5,0,0,0,.707,0Z"/>
    <path d="M642.883,6.353a.5.5,0,1,0-.707-.707l-4.293,4.293.707.707Zm-6.414,5,.707.707-4.293,4.293a.5.5,0,0,1-.707-.707Zm6.414,5a.5.5,0,0,0,0-.707l-10-10a.5.5,0,0,0-.707.707l10,10a.5.5,0,0,0,.707,0Z"/>
    <path d="M653.971,6.353a.5.5,0,1,0-.707-.707l-4.293,4.293.707.707Zm-6.414,5,.707.707-4.293,4.293a.5.5,0,0,1-.707,0,.5.5,0,0,1,0-.707Zm6.414,5a.5.5,0,0,0,0-.707l-10-10a.5.5,0,0,0-.707.707l10,10a.5.5,0,0,0,.707,0Z"/>
    <path d="M665.059,6.353a.5.5,0,1,0-.707-.707l-4.293,4.293.707.707Zm-6.414,5,.707.707-4.293,4.293a.5.5,0,0,1-.707,0,.5.5,0,0,1,0-.707Zm6.414,5a.5.5,0,0,0,0-.707l-10-10a.5.5,0,0,0-.707.707l10,10a.5.5,0,0,0,.707,0Z"/>
    <path d="M676.148,6.353a.5.5,0,0,0-.707-.707l-4.293,4.293.707.707Zm-6.414,5,.707.707-4.293,4.293a.5.5,0,1,1-.707-.707Zm6.414,5a.5.5,0,0,0,0-.707l-10-10a.5.5,0,1,0-.707.707l10,10a.5.5,0,0,0,.707,0Z"/>
    <path d="M687.236,6.353a.5.5,0,0,0-.707-.707l-4.293,4.293.707.707Zm-6.414,5,.707.707-4.293,4.293a.5.5,0,1,1-.707-.707Zm6.414,5a.5.5,0,0,0,0-.707l-10-10a.5.5,0,1,0-.707.707l10,10a.5.5,0,0,0,.707,0Z"/>
    <path d="M698.324,6.353a.5.5,0,0,0-.707-.707l-4.293,4.293.707.707Zm-6.414,5,.707.707-4.293,4.293a.5.5,0,1,1-.707-.707Zm6.414,5a.5.5,0,0,0,0-.707l-10-10a.5.5,0,1,0-.707.707l10,10a.5.5,0,0,0,.707,0Z"/>
    <path d="M709.412,6.353a.5.5,0,1,0-.707-.707l-4.293,4.293.707.707Zm-6.414,5,.707.707-4.293,4.293a.5.5,0,0,1-.707,0,.5.5,0,0,1,0-.707Zm6.414,5a.5.5,0,0,0,0-.707l-10-10a.5.5,0,0,0-.707.707l10,10a.5.5,0,0,0,.707,0Z"/>
    <path d="M720.5,6.353a.5.5,0,1,0-.707-.707L715.5,9.939l.707.707Zm-6.414,5,.707.707L710.5,16.353a.5.5,0,0,1-.707-.707Zm6.414,5a.5.5,0,0,0,0-.707l-10-10a.5.5,0,0,0-.707.707l10,10a.5.5,0,0,0,.707,0Z"/>
    <path d="M731.589,6.353a.5.5,0,1,0-.707-.707l-4.293,4.293.707.707Zm-6.414,5,.707.707-4.293,4.293a.5.5,0,0,1-.707-.707Zm6.414,5a.5.5,0,0,0,0-.707l-10-10a.5.5,0,1,0-.707.707l10,10a.5.5,0,0,0,.707,0Z"/>
    <path d="M742.677,6.353a.5.5,0,0,0-.707-.707l-4.293,4.293.707.707Zm-6.414,5,.707.707-4.293,4.293a.5.5,0,1,1-.707-.707Zm6.414,5a.5.5,0,0,0,0-.707l-10-10a.5.5,0,1,0-.707.707l10,10a.5.5,0,0,0,.707,0Z"/>
    <path d="M753.765,6.353a.5.5,0,0,0-.707-.707l-4.293,4.293.707.707Zm-6.414,5,.707.707-4.293,4.293a.5.5,0,0,1-.707,0,.5.5,0,0,1,0-.707Zm6.414,5a.5.5,0,0,0,0-.707l-10-10a.5.5,0,1,0-.707.707l10,10a.5.5,0,0,0,.707,0Z"/>
    <path d="M764.854,6.353a.5.5,0,1,0-.708-.707l-4.292,4.293.707.707Zm-6.415,5,.707.707-4.292,4.293a.5.5,0,0,1-.708-.707Zm6.415,5a.5.5,0,0,0,0-.707l-10-10a.5.5,0,1,0-.708.707l10,10a.5.5,0,0,0,.708,0Z"/>
  </g>
</svg>
