<svg id="svg_line" data-name="レイヤー 1" xmlns="http://www.w3.org/2000/svg" width="765" height="22" viewBox="0 0 765 22" fill="#cccccc">
  <path d="M762.991,9.121a1.874,1.874,0,0,0-1.8,1.38H561.171c-1.19,0-3.46-1.4-3.58-1.9a.507.507,0,0,0-.5-.51.49.49,0,0,0-.5.49c-.122.518-2.393,1.92-3.582,1.92H532.893c-1.543,0-4.4-2.271-4.4-3a.5.5,0,0,0-1,0c0,.729-2.857,3-4.4,3H504.614c-1.74,0-5.22-2.941-5.22-4.1a.5.5,0,1,0-1,0c0,1.159-3.48,4.1-5.22,4.1H476.336c-1.919,0-6.04-3.548-6.04-5.2a.5.5,0,0,0-1,0c0,1.652-4.121,5.2-6.04,5.2h-15.2c-2.18,0-6.86-4.3-6.86-6.3a.5.5,0,1,0-1,0c0,2-4.68,6.3-6.86,6.3H419.778c-2.44,0-7.679-5.049-7.679-7.4a.5.5,0,0,0-1,0c0,2.351-5.24,7.4-7.68,7.4H391.5a2.465,2.465,0,0,1-.458-.056c-2.79-.558-7.887-5.886-7.887-8.444a.5.5,0,0,0-.5-.5.415.415,0,0,0-.078.016A.405.405,0,0,0,382.5,1.5a.5.5,0,0,0-.5.5c0,2.7-5.8,8.5-8.5,8.5H362.118c-2.393,0-7.531-5.049-7.531-7.4a.5.5,0,0,0-1,0c0,2.351-5.138,7.4-7.531,7.4H332.745c-2.138,0-6.726-4.3-6.726-6.3a.5.5,0,1,0-1,0c0,2-4.589,6.3-6.726,6.3H303.372c-1.882,0-5.921-3.548-5.921-5.2a.5.5,0,0,0-1,0c0,1.652-4.039,5.2-5.921,5.2H274c-1.706,0-5.116-2.941-5.116-4.1a.5.5,0,1,0-1,0c0,1.159-3.41,4.1-5.115,4.1H244.626c-1.511,0-4.311-2.271-4.311-3a.5.5,0,0,0-1,0c0,.729-2.8,3-4.311,3H215.253c-1.136,0-3.395-1.414-3.506-1.9a.506.506,0,0,0-.5-.509.492.492,0,0,0-.5.491c-.113.5-2.372,1.918-3.507,1.918H3.813a1.88,1.88,0,1,0,0,1H207.25c1.134.006,3.371,1.405,3.5,1.912a.507.507,0,0,0,.5.5.492.492,0,0,0,.5-.491c.112-.5,2.361-1.911,3.5-1.917h19.771c1.514.012,4.3,2.272,4.3,3a.5.5,0,0,0,1,0c0-.727,2.785-2.987,4.3-3h18.164c1.709.012,5.1,2.943,5.1,4.1a.5.5,0,1,0,1,0c0-1.156,3.4-4.087,5.105-4.1H290.54c1.885.012,5.911,3.55,5.911,5.2a.5.5,0,0,0,1,0c0-1.649,4.026-5.187,5.911-5.2H318.3c2.141.012,6.717,4.3,6.717,6.3a.5.5,0,1,0,1,0c0-2,4.576-6.287,6.717-6.3h13.329c2.4.012,7.522,5.051,7.522,7.4a.5.5,0,0,0,1,0c0-2.348,5.125-7.387,7.522-7.4h11.4c2.7.012,8.491,5.8,8.491,8.5a.5.5,0,0,0,.5.5.405.405,0,0,0,.077-.016.415.415,0,0,0,.078.016.5.5,0,0,0,.5-.5c0-2.558,5.1-7.886,7.887-8.444a2.453,2.453,0,0,1,.449-.055h11.937c2.444.012,7.671,5.051,7.671,7.4a.5.5,0,0,0,1,0c0-2.348,5.226-7.387,7.67-7.4h13.577c2.184.012,6.851,4.3,6.851,6.3a.5.5,0,1,0,1,0c0-2,4.667-6.287,6.85-6.3h15.219c1.923.012,6.03,3.55,6.03,5.2a.5.5,0,0,0,1,0c0-1.649,4.107-5.187,6.03-5.2h16.859c1.743.012,5.209,2.943,5.209,4.1a.5.5,0,0,0,1,0c0-1.156,3.466-4.087,5.21-4.1h18.5c1.545.012,4.387,2.272,4.387,3a.5.5,0,0,0,1,0c0-.727,2.843-2.987,4.388-3h20.139c1.188.006,3.435,1.393,3.572,1.913a.507.507,0,0,0,.5.5.491.491,0,0,0,.5-.49c.122-.517,2.382-1.913,3.574-1.919H761.187a1.876,1.876,0,1,0,1.8-2.38ZM211.247,12.428A7.005,7.005,0,0,0,209.1,11a7.005,7.005,0,0,0,2.152-1.428A7.011,7.011,0,0,0,213.4,11,7.011,7.011,0,0,0,211.247,12.428Zm28.568.887A8.63,8.63,0,0,0,236.8,11a8.63,8.63,0,0,0,3.018-2.315A8.639,8.639,0,0,0,242.833,11,8.639,8.639,0,0,0,239.815,13.315Zm28.568.944A10.375,10.375,0,0,0,264.554,11a10.375,10.375,0,0,0,3.829-3.259A10.391,10.391,0,0,0,272.212,11,10.391,10.391,0,0,0,268.383,14.259Zm28.568.956A12.266,12.266,0,0,0,292.3,11a12.266,12.266,0,0,0,4.654-4.215A12.266,12.266,0,0,0,301.605,11,12.266,12.266,0,0,0,296.951,15.215Zm28.568.943A13.825,13.825,0,0,0,320.088,11a13.825,13.825,0,0,0,5.431-5.158A13.825,13.825,0,0,0,330.95,11,13.825,13.825,0,0,0,325.519,16.158Zm28.568.958a15.4,15.4,0,0,0-6.2-6.116,15.4,15.4,0,0,0,6.2-6.116A15.4,15.4,0,0,0,360.29,11,15.4,15.4,0,0,0,354.087,17.116Zm28.568.967c-.02-.044-.051-.09-.072-.134-.024.05-.06.1-.083.154a17.1,17.1,0,0,0-7.1-7.1,17.1,17.1,0,0,0,7.1-7.1c.023.051.059.1.083.154.021-.044.052-.09.072-.134A16.966,16.966,0,0,0,389.626,11,16.966,16.966,0,0,0,382.655,18.083Zm28.944-.949A15.517,15.517,0,0,0,405.279,11a15.517,15.517,0,0,0,6.32-6.134A15.521,15.521,0,0,0,417.918,11,15.521,15.521,0,0,0,411.6,17.134Zm29.1-.959A13.948,13.948,0,0,0,435.163,11,13.948,13.948,0,0,0,440.7,5.825,13.958,13.958,0,0,0,446.23,11,13.958,13.958,0,0,0,440.7,16.175Zm29.1-.946A12.4,12.4,0,0,0,465.053,11,12.4,12.4,0,0,0,469.8,6.771,12.4,12.4,0,0,0,474.539,11,12.4,12.4,0,0,0,469.8,15.229Zm29.1-.984A10.518,10.518,0,0,0,494.956,11a10.518,10.518,0,0,0,3.938-3.245A10.51,10.51,0,0,0,502.832,11,10.51,10.51,0,0,0,498.894,14.245Zm29.1-.919A8.747,8.747,0,0,0,524.916,11a8.747,8.747,0,0,0,3.076-2.326A8.751,8.751,0,0,0,531.069,11,8.751,8.751,0,0,0,527.992,13.326Zm29.1-.89A7.143,7.143,0,0,0,554.9,11a7.143,7.143,0,0,0,2.2-1.436,7.119,7.119,0,0,0,2.2,1.436A7.119,7.119,0,0,0,557.091,12.436Z"/>
</svg>
