<svg id="svg_line" data-name="レイヤー 1" xmlns="http://www.w3.org/2000/svg" width="765" height="22" viewBox="0 0 765 22" fill="#cccccc">
  <defs>
    <style>
      .cls-1 {
        fill-rule: evenodd;
      }
    </style>
  </defs>
  <g>
    <polygon class="cls-1" points="7.143 13.5 0 13.5 1.82 8.5 8.963 8.5 7.143 13.5"/>
    <polygon class="cls-1" points="31.531 13.5 24.388 13.5 26.208 8.5 33.351 8.5 31.531 13.5"/>
    <polygon class="cls-1" points="55.919 13.5 48.777 13.5 50.596 8.5 57.739 8.5 55.919 13.5"/>
    <polygon class="cls-1" points="80.308 13.5 73.165 13.5 74.985 8.5 82.128 8.5 80.308 13.5"/>
    <polygon class="cls-1" points="104.696 13.5 97.553 13.5 99.373 8.5 106.516 8.5 104.696 13.5"/>
    <polygon class="cls-1" points="129.084 13.5 121.941 13.5 123.761 8.5 130.904 8.5 129.084 13.5"/>
    <polygon class="cls-1" points="153.473 13.5 146.33 13.5 148.15 8.5 155.293 8.5 153.473 13.5"/>
    <polygon class="cls-1" points="177.861 13.5 170.718 13.5 172.538 8.5 179.681 8.5 177.861 13.5"/>
    <polygon class="cls-1" points="202.249 13.5 195.106 13.5 196.926 8.5 204.069 8.5 202.249 13.5"/>
    <polygon class="cls-1" points="226.638 13.5 219.495 13.5 221.315 8.5 228.457 8.5 226.638 13.5"/>
    <polygon class="cls-1" points="251.026 13.5 243.883 13.5 245.703 8.5 252.846 8.5 251.026 13.5"/>
    <polygon class="cls-1" points="275.414 13.5 268.271 13.5 270.091 8.5 277.234 8.5 275.414 13.5"/>
    <polygon class="cls-1" points="299.802 13.5 292.66 13.5 294.479 8.5 301.622 8.5 299.802 13.5"/>
    <polygon class="cls-1" points="324.191 13.5 317.048 13.5 318.868 8.5 326.011 8.5 324.191 13.5"/>
    <polygon class="cls-1" points="348.579 13.5 341.436 13.5 343.256 8.5 350.399 8.5 348.579 13.5"/>
    <polygon class="cls-1" points="372.967 13.5 365.824 13.5 367.644 8.5 374.787 8.5 372.967 13.5"/>
    <polygon class="cls-1" points="397.356 13.5 390.213 13.5 392.033 8.5 399.176 8.5 397.356 13.5"/>
    <polygon class="cls-1" points="421.744 13.5 414.601 13.5 416.421 8.5 423.564 8.5 421.744 13.5"/>
    <polygon class="cls-1" points="446.132 13.5 438.989 13.5 440.809 8.5 447.952 8.5 446.132 13.5"/>
    <polygon class="cls-1" points="470.521 13.5 463.378 13.5 465.198 8.5 472.34 8.5 470.521 13.5"/>
    <polygon class="cls-1" points="494.909 13.5 487.766 13.5 489.586 8.5 496.729 8.5 494.909 13.5"/>
    <polygon class="cls-1" points="519.297 13.5 512.154 13.5 513.974 8.5 521.117 8.5 519.297 13.5"/>
    <polygon class="cls-1" points="543.685 13.5 536.543 13.5 538.362 8.5 545.505 8.5 543.685 13.5"/>
    <polygon class="cls-1" points="568.074 13.5 560.931 13.5 562.751 8.5 569.894 8.5 568.074 13.5"/>
    <polygon class="cls-1" points="592.462 13.5 585.319 13.5 587.139 8.5 594.282 8.5 592.462 13.5"/>
    <polygon class="cls-1" points="616.85 13.5 609.707 13.5 611.527 8.5 618.67 8.5 616.85 13.5"/>
    <polygon class="cls-1" points="641.239 13.5 634.096 13.5 635.916 8.5 643.059 8.5 641.239 13.5"/>
    <polygon class="cls-1" points="665.627 13.5 658.484 13.5 660.304 8.5 667.447 8.5 665.627 13.5"/>
    <polygon class="cls-1" points="690.015 13.5 682.872 13.5 684.692 8.5 691.835 8.5 690.015 13.5"/>
    <polygon class="cls-1" points="714.404 13.5 707.261 13.5 709.081 8.5 716.223 8.5 714.404 13.5"/>
    <polygon class="cls-1" points="738.792 13.5 731.649 13.5 733.469 8.5 740.612 8.5 738.792 13.5"/>
    <polygon class="cls-1" points="763.18 13.5 756.037 13.5 757.857 8.5 765 8.5 763.18 13.5"/>
  </g>
</svg>
